<svg xmlns="http://www.w3.org/2000/svg" xmlns:xlink="http://www.w3.org/1999/xlink" width="763" zoomAndPan="magnify" viewBox="0 0 572.25 455.999984" height="608" preserveAspectRatio="xMidYMid meet" version="1.0"><defs><clipPath id="8f1f0b60b8"><path d="M 0 0.296875 L 571.5 0.296875 L 571.5 455.699219 L 0 455.699219 Z M 0 0.296875 " clip-rule="nonzero"/></clipPath><clipPath id="547c11e49f"><path d="M 100.558594 47 L 463 47 L 463 409 L 100.558594 409 Z M 100.558594 47 " clip-rule="nonzero"/></clipPath><clipPath id="78fc72ad96"><path d="M 386 250 L 470.574219 250 L 470.574219 366 L 386 366 Z M 386 250 " clip-rule="nonzero"/></clipPath></defs><g clip-path="url(#8f1f0b60b8)"><path fill="#ffffff" d="M 0 0.296875 L 571.5 0.296875 L 571.5 455.703125 L 0 455.703125 Z M 0 0.296875 " fill-opacity="1" fill-rule="nonzero"/><path fill="#ffffff" d="M 0 0.296875 L 571.5 0.296875 L 571.5 455.703125 L 0 455.703125 Z M 0 0.296875 " fill-opacity="1" fill-rule="nonzero"/></g><g clip-path="url(#547c11e49f)"><path fill="#ed4e1f" d="M 281.171875 365.347656 C 278.921875 365.347656 276.667969 365.292969 274.417969 365.183594 C 272.167969 365.074219 269.921875 364.910156 267.679688 364.691406 C 265.4375 364.472656 263.199219 364.195312 260.972656 363.867188 C 258.742188 363.535156 256.523438 363.152344 254.3125 362.714844 C 252.101562 362.277344 249.902344 361.78125 247.71875 361.238281 C 245.53125 360.691406 243.359375 360.089844 241.203125 359.4375 C 239.046875 358.785156 236.910156 358.078125 234.785156 357.320312 C 232.664062 356.5625 230.5625 355.75 228.480469 354.890625 C 226.398438 354.027344 224.339844 353.117188 222.300781 352.15625 C 220.265625 351.191406 218.25 350.179688 216.265625 349.117188 C 214.277344 348.058594 212.316406 346.949219 210.382812 345.789062 C 208.449219 344.632812 206.546875 343.429688 204.671875 342.175781 C 202.796875 340.925781 200.957031 339.628906 199.144531 338.289062 C 197.335938 336.945312 195.558594 335.5625 193.816406 334.132812 C 192.074219 332.703125 190.367188 331.234375 188.695312 329.71875 C 187.027344 328.207031 185.394531 326.65625 183.800781 325.0625 C 182.207031 323.46875 180.652344 321.839844 179.140625 320.171875 C 177.625 318.5 176.152344 316.796875 174.722656 315.054688 C 173.292969 313.3125 171.90625 311.539062 170.5625 309.730469 C 169.222656 307.917969 167.921875 306.078125 166.671875 304.207031 C 165.417969 302.332031 164.210938 300.429688 163.054688 298.496094 C 161.894531 296.566406 160.78125 294.605469 159.71875 292.617188 C 158.65625 290.632812 157.644531 288.621094 156.679688 286.582031 C 155.714844 284.546875 154.800781 282.488281 153.9375 280.40625 C 153.074219 278.324219 152.265625 276.222656 151.503906 274.101562 C 150.746094 271.980469 150.039062 269.84375 149.382812 267.6875 C 148.726562 265.53125 148.125 263.359375 147.578125 261.175781 C 147.03125 258.988281 146.535156 256.789062 146.09375 254.582031 C 145.65625 252.371094 145.269531 250.152344 144.9375 247.921875 C 144.605469 245.695312 144.332031 243.457031 144.109375 241.214844 C 143.886719 238.972656 143.71875 236.726562 143.609375 234.476562 C 143.496094 232.226562 143.441406 229.972656 143.441406 227.722656 C 143.441406 225.46875 143.496094 223.214844 143.605469 220.964844 C 143.714844 218.714844 143.878906 216.46875 144.101562 214.226562 C 144.320312 211.984375 144.59375 209.746094 144.925781 207.519531 C 145.253906 205.289062 145.640625 203.070312 146.078125 200.859375 C 146.519531 198.648438 147.011719 196.453125 147.558594 194.265625 C 148.105469 192.078125 148.703125 189.910156 149.359375 187.753906 C 150.011719 185.597656 150.71875 183.457031 151.476562 181.335938 C 152.234375 179.214844 153.042969 177.113281 153.90625 175.03125 C 154.769531 172.949219 155.679688 170.886719 156.644531 168.851562 C 157.605469 166.8125 158.617188 164.800781 159.679688 162.8125 C 160.742188 160.828125 161.851562 158.867188 163.007812 156.933594 C 164.167969 155 165.371094 153.097656 166.625 151.222656 C 167.875 149.347656 169.171875 147.507812 170.511719 145.695312 C 171.855469 143.886719 173.242188 142.109375 174.667969 140.367188 C 176.097656 138.625 177.570312 136.921875 179.082031 135.25 C 180.59375 133.582031 182.148438 131.949219 183.742188 130.355469 C 185.335938 128.761719 186.964844 127.207031 188.632812 125.695312 C 190.304688 124.179688 192.007812 122.707031 193.75 121.277344 C 195.492188 119.847656 197.265625 118.460938 199.078125 117.121094 C 200.886719 115.777344 202.726562 114.480469 204.601562 113.226562 C 206.472656 111.976562 208.378906 110.769531 210.308594 109.609375 C 212.242188 108.453125 214.203125 107.339844 216.1875 106.277344 C 218.175781 105.214844 220.1875 104.203125 222.226562 103.238281 C 224.261719 102.277344 226.320312 101.363281 228.402344 100.5 C 230.484375 99.636719 232.585938 98.824219 234.707031 98.066406 C 236.828125 97.308594 238.96875 96.601562 241.121094 95.945312 C 243.277344 95.289062 245.449219 94.691406 247.636719 94.140625 C 249.820312 93.59375 252.019531 93.101562 254.230469 92.660156 C 256.4375 92.21875 258.660156 91.835938 260.886719 91.503906 C 263.117188 91.171875 265.351562 90.894531 267.59375 90.675781 C 269.835938 90.453125 272.082031 90.289062 274.332031 90.175781 C 276.582031 90.066406 278.835938 90.011719 281.089844 90.011719 C 283.34375 90.007812 285.59375 90.066406 287.84375 90.175781 C 290.09375 90.285156 292.34375 90.449219 294.585938 90.671875 C 296.828125 90.890625 299.0625 91.167969 301.292969 91.496094 C 303.519531 91.828125 305.738281 92.210938 307.949219 92.652344 C 310.160156 93.089844 312.359375 93.585938 314.542969 94.132812 C 316.730469 94.679688 318.902344 95.277344 321.058594 95.933594 C 323.214844 96.585938 325.351562 97.292969 327.472656 98.050781 C 329.59375 98.8125 331.695312 99.621094 333.777344 100.484375 C 335.859375 101.34375 337.921875 102.257812 339.957031 103.222656 C 341.996094 104.183594 344.007812 105.195312 345.992188 106.257812 C 347.980469 107.320312 349.941406 108.429688 351.875 109.589844 C 353.808594 110.746094 355.710938 111.953125 357.582031 113.203125 C 359.457031 114.457031 361.300781 115.753906 363.109375 117.09375 C 364.917969 118.4375 366.695312 119.824219 368.4375 121.25 C 370.179688 122.679688 371.882812 124.152344 373.554688 125.664062 C 375.222656 127.179688 376.855469 128.730469 378.449219 130.324219 C 380.042969 131.917969 381.597656 133.550781 383.109375 135.21875 C 384.621094 136.886719 386.09375 138.59375 387.523438 140.335938 C 388.953125 142.078125 390.339844 143.851562 391.679688 145.664062 C 393.023438 147.472656 394.320312 149.3125 395.574219 151.1875 C 396.824219 153.0625 398.03125 154.964844 399.1875 156.898438 C 400.347656 158.828125 401.457031 160.789062 402.519531 162.777344 C 403.582031 164.761719 404.59375 166.777344 405.558594 168.8125 C 406.523438 170.847656 407.433594 172.910156 408.296875 174.992188 C 409.160156 177.070312 409.96875 179.171875 410.730469 181.296875 C 411.488281 183.417969 412.195312 185.554688 412.851562 187.710938 C 413.503906 189.867188 414.105469 192.039062 414.652344 194.226562 C 415.199219 196.410156 415.695312 198.609375 416.132812 200.820312 C 416.574219 203.027344 416.957031 205.246094 417.289062 207.476562 C 417.621094 209.707031 417.894531 211.941406 418.117188 214.183594 C 418.335938 216.425781 418.503906 218.671875 418.613281 220.921875 C 418.722656 223.171875 418.777344 225.425781 418.777344 227.679688 C 418.777344 228.097656 418.820312 228.507812 418.902344 228.917969 C 418.980469 229.328125 419.101562 229.726562 419.261719 230.109375 C 419.421875 230.496094 419.617188 230.863281 419.847656 231.207031 C 420.082031 231.554688 420.34375 231.875 420.640625 232.171875 C 420.933594 232.464844 421.253906 232.730469 421.601562 232.960938 C 421.949219 233.191406 422.316406 233.386719 422.699219 233.546875 C 423.085938 233.707031 423.484375 233.828125 423.890625 233.910156 C 424.300781 233.992188 424.714844 234.03125 425.132812 234.03125 L 455.753906 234.03125 C 456.171875 234.03125 456.582031 233.992188 456.992188 233.910156 C 457.402344 233.828125 457.800781 233.707031 458.183594 233.546875 C 458.570312 233.386719 458.9375 233.191406 459.28125 232.960938 C 459.628906 232.730469 459.949219 232.464844 460.246094 232.171875 C 460.539062 231.875 460.804688 231.554688 461.035156 231.207031 C 461.265625 230.863281 461.460938 230.496094 461.621094 230.109375 C 461.78125 229.726562 461.902344 229.328125 461.984375 228.917969 C 462.066406 228.507812 462.105469 228.097656 462.105469 227.679688 C 462.105469 224.722656 462.035156 221.769531 461.890625 218.820312 C 461.742188 215.867188 461.527344 212.921875 461.238281 209.980469 C 460.949219 207.042969 460.585938 204.109375 460.152344 201.1875 C 459.71875 198.265625 459.214844 195.355469 458.636719 192.457031 C 458.0625 189.558594 457.414062 186.675781 456.695312 183.808594 C 455.980469 180.941406 455.191406 178.097656 454.335938 175.269531 C 453.476562 172.441406 452.550781 169.636719 451.554688 166.851562 C 450.5625 164.070312 449.496094 161.316406 448.367188 158.585938 C 447.238281 155.855469 446.039062 153.15625 444.777344 150.484375 C 443.515625 147.8125 442.1875 145.171875 440.792969 142.566406 C 439.402344 139.960938 437.945312 137.390625 436.429688 134.855469 C 434.910156 132.320312 433.328125 129.824219 431.6875 127.367188 C 430.046875 124.910156 428.347656 122.496094 426.589844 120.121094 C 424.828125 117.746094 423.011719 115.417969 421.136719 113.132812 C 419.265625 110.847656 417.335938 108.613281 415.351562 106.421875 C 413.367188 104.230469 411.332031 102.09375 409.242188 100.003906 C 407.152344 97.914062 405.015625 95.875 402.828125 93.890625 C 400.636719 91.90625 398.402344 89.976562 396.117188 88.101562 C 393.835938 86.222656 391.507812 84.40625 389.132812 82.644531 C 386.761719 80.882812 384.347656 79.183594 381.890625 77.539062 C 379.433594 75.898438 376.9375 74.316406 374.40625 72.796875 C 371.871094 71.277344 369.300781 69.820312 366.695312 68.425781 C 364.089844 67.03125 361.453125 65.703125 358.78125 64.4375 C 356.113281 63.171875 353.414062 61.976562 350.683594 60.84375 C 347.953125 59.710938 345.199219 58.648438 342.417969 57.648438 C 339.632812 56.652344 336.832031 55.726562 334.003906 54.867188 C 331.175781 54.007812 328.328125 53.21875 325.464844 52.5 C 322.597656 51.78125 319.714844 51.128906 316.816406 50.554688 C 313.921875 49.976562 311.011719 49.46875 308.085938 49.035156 C 305.164062 48.597656 302.234375 48.234375 299.292969 47.945312 C 296.351562 47.652344 293.40625 47.433594 290.457031 47.285156 C 287.503906 47.140625 284.550781 47.066406 281.597656 47.0625 C 278.640625 47.0625 275.6875 47.132812 272.738281 47.277344 C 269.785156 47.417969 266.839844 47.636719 263.898438 47.921875 C 260.960938 48.210938 258.027344 48.570312 255.105469 49.003906 C 252.179688 49.433594 249.269531 49.9375 246.371094 50.511719 C 243.472656 51.085938 240.589844 51.730469 237.722656 52.449219 C 234.855469 53.164062 232.011719 53.949219 229.183594 54.804688 C 226.355469 55.660156 223.546875 56.585938 220.765625 57.578125 C 217.984375 58.574219 215.226562 59.632812 212.496094 60.761719 C 209.765625 61.890625 207.0625 63.085938 204.390625 64.347656 C 201.71875 65.609375 199.078125 66.933594 196.472656 68.324219 C 193.867188 69.714844 191.292969 71.171875 188.757812 72.6875 C 186.222656 74.203125 183.726562 75.78125 181.269531 77.421875 C 178.808594 79.0625 176.394531 80.761719 174.019531 82.519531 C 171.644531 84.277344 169.3125 86.09375 167.027344 87.964844 C 164.742188 89.839844 162.503906 91.765625 160.3125 93.75 C 158.121094 95.730469 155.980469 97.765625 153.890625 99.851562 C 151.796875 101.941406 149.757812 104.078125 147.773438 106.265625 C 145.789062 108.453125 143.855469 110.6875 141.980469 112.96875 C 140.101562 115.253906 138.28125 117.578125 136.519531 119.953125 C 134.757812 122.324219 133.054688 124.738281 131.410156 127.191406 C 129.765625 129.648438 128.183594 132.140625 126.664062 134.675781 C 125.140625 137.207031 123.683594 139.777344 122.289062 142.378906 C 120.890625 144.984375 119.5625 147.621094 118.296875 150.292969 C 117.027344 152.960938 115.828125 155.660156 114.695312 158.390625 C 113.5625 161.117188 112.496094 163.875 111.5 166.65625 C 110.5 169.433594 109.570312 172.238281 108.710938 175.066406 C 107.847656 177.894531 107.058594 180.738281 106.335938 183.605469 C 105.617188 186.46875 104.964844 189.351562 104.386719 192.25 C 103.804688 195.144531 103.296875 198.054688 102.859375 200.976562 C 102.425781 203.898438 102.058594 206.832031 101.765625 209.773438 C 101.472656 212.710938 101.253906 215.65625 101.105469 218.609375 C 100.957031 221.558594 100.878906 224.511719 100.875 227.46875 C 100.875 230.421875 100.941406 233.375 101.082031 236.328125 C 101.226562 239.277344 101.4375 242.222656 101.726562 245.164062 C 102.011719 248.105469 102.367188 251.039062 102.800781 253.960938 C 103.230469 256.886719 103.730469 259.796875 104.304688 262.695312 C 104.875 265.59375 105.519531 268.476562 106.234375 271.34375 C 106.949219 274.210938 107.734375 277.058594 108.585938 279.886719 C 109.441406 282.714844 110.363281 285.523438 111.355469 288.304688 C 112.347656 291.089844 113.40625 293.847656 114.535156 296.578125 C 115.660156 299.308594 116.855469 302.011719 118.113281 304.683594 C 119.375 307.355469 120.699219 309.996094 122.089844 312.605469 C 123.476562 315.210938 124.929688 317.785156 126.445312 320.320312 C 127.960938 322.855469 129.539062 325.355469 131.175781 327.8125 C 132.8125 330.273438 134.511719 332.691406 136.269531 335.066406 C 138.027344 337.441406 139.839844 339.773438 141.710938 342.058594 C 143.582031 344.347656 145.507812 346.585938 147.488281 348.777344 C 149.46875 350.972656 151.503906 353.113281 153.589844 355.207031 C 155.675781 357.296875 157.8125 359.339844 160 361.324219 C 162.1875 363.3125 164.417969 365.246094 166.699219 367.125 C 168.980469 369.003906 171.308594 370.824219 173.679688 372.585938 C 176.050781 374.351562 178.460938 376.054688 180.917969 377.699219 C 183.371094 379.347656 185.863281 380.929688 188.394531 382.453125 C 190.925781 383.976562 193.496094 385.4375 196.097656 386.832031 C 198.703125 388.230469 201.339844 389.5625 204.007812 390.828125 C 206.675781 392.097656 209.375 393.296875 212.105469 394.433594 C 214.832031 395.570312 217.585938 396.636719 220.367188 397.636719 C 223.148438 398.636719 225.949219 399.566406 228.777344 400.429688 C 231.601562 401.292969 234.449219 402.085938 237.3125 402.808594 C 240.179688 403.53125 243.058594 404.183594 245.957031 404.765625 C 248.855469 405.34375 251.761719 405.855469 254.683594 406.292969 C 257.605469 406.730469 260.539062 407.097656 263.476562 407.394531 C 266.417969 407.6875 269.363281 407.910156 272.316406 408.0625 C 275.265625 408.210938 278.21875 408.289062 281.171875 408.292969 C 281.589844 408.292969 282.003906 408.253906 282.414062 408.171875 C 282.820312 408.089844 283.21875 407.96875 283.605469 407.808594 C 283.988281 407.652344 284.355469 407.453125 284.703125 407.222656 C 285.050781 406.992188 285.371094 406.726562 285.664062 406.433594 C 285.960938 406.136719 286.222656 405.816406 286.457031 405.46875 C 286.6875 405.125 286.882812 404.757812 287.042969 404.371094 C 287.203125 403.988281 287.324219 403.589844 287.40625 403.179688 C 287.484375 402.769531 287.527344 402.359375 287.527344 401.941406 L 287.527344 371.445312 C 287.511719 371.039062 287.457031 370.640625 287.363281 370.242188 C 287.269531 369.847656 287.140625 369.464844 286.972656 369.09375 C 286.804688 368.722656 286.605469 368.371094 286.371094 368.039062 C 286.136719 367.707031 285.871094 367.398438 285.578125 367.117188 C 285.285156 366.835938 284.96875 366.585938 284.625 366.363281 C 284.285156 366.144531 283.925781 365.957031 283.546875 365.804688 C 283.171875 365.652344 282.78125 365.539062 282.382812 365.460938 C 281.984375 365.386719 281.582031 365.347656 281.171875 365.347656 Z M 274.820312 395.84375 C 272.113281 395.738281 269.410156 395.570312 266.707031 395.339844 C 264.007812 395.105469 261.316406 394.808594 258.628906 394.445312 C 255.945312 394.082031 253.269531 393.65625 250.605469 393.164062 C 247.9375 392.671875 245.285156 392.113281 242.648438 391.496094 C 240.011719 390.875 237.390625 390.191406 234.785156 389.445312 C 232.179688 388.695312 229.59375 387.886719 227.027344 387.015625 C 224.460938 386.144531 221.917969 385.210938 219.398438 384.214844 C 216.875 383.222656 214.378906 382.164062 211.910156 381.050781 C 209.441406 379.933594 207 378.761719 204.585938 377.527344 C 202.171875 376.292969 199.789062 375.003906 197.4375 373.65625 C 195.089844 372.308594 192.773438 370.902344 190.488281 369.441406 C 188.207031 367.984375 185.960938 366.46875 183.75 364.898438 C 181.539062 363.332031 179.367188 361.710938 177.238281 360.035156 C 175.105469 358.363281 173.015625 356.636719 170.96875 354.863281 C 168.917969 353.089844 166.914062 351.265625 164.953125 349.394531 C 162.996094 347.523438 161.082031 345.605469 159.214844 343.640625 C 157.34375 341.675781 155.527344 339.667969 153.757812 337.617188 C 151.984375 335.566406 150.265625 333.472656 148.597656 331.335938 C 146.925781 329.203125 145.308594 327.027344 143.746094 324.816406 C 142.179688 322.601562 140.671875 320.351562 139.214844 318.066406 C 137.757812 315.78125 136.359375 313.460938 135.015625 311.109375 C 133.671875 308.753906 132.386719 306.371094 131.15625 303.953125 C 129.929688 301.539062 128.761719 299.09375 127.648438 296.621094 C 126.539062 294.152344 125.488281 291.652344 124.5 289.128906 C 123.511719 286.605469 122.582031 284.0625 121.714844 281.492188 C 120.847656 278.925781 120.042969 276.339844 119.300781 273.734375 C 118.5625 271.125 117.882812 268.503906 117.265625 265.863281 C 116.652344 263.222656 116.101562 260.570312 115.613281 257.90625 C 115.128906 255.238281 114.707031 252.5625 114.347656 249.875 C 113.988281 247.191406 113.699219 244.496094 113.46875 241.796875 C 113.242188 239.097656 113.082031 236.390625 112.984375 233.683594 C 112.886719 230.976562 112.855469 228.265625 112.890625 225.554688 C 112.921875 222.847656 113.023438 220.136719 113.1875 217.433594 C 113.351562 214.726562 113.582031 212.027344 113.878906 209.335938 C 114.171875 206.640625 114.535156 203.957031 114.957031 201.277344 C 115.382812 198.601562 115.871094 195.9375 116.425781 193.285156 C 116.980469 190.632812 117.597656 187.992188 118.277344 185.371094 C 118.960938 182.746094 119.703125 180.144531 120.511719 177.554688 C 121.320312 174.96875 122.1875 172.402344 123.117188 169.855469 C 124.050781 167.3125 125.042969 164.789062 126.09375 162.292969 C 127.148438 159.796875 128.257812 157.324219 129.433594 154.882812 C 130.605469 152.4375 131.835938 150.023438 133.125 147.640625 C 134.414062 145.257812 135.757812 142.90625 137.160156 140.585938 C 138.5625 138.269531 140.019531 135.984375 141.53125 133.734375 C 143.046875 131.488281 144.613281 129.277344 146.230469 127.101562 C 147.851562 124.929688 149.523438 122.796875 151.246094 120.707031 C 152.964844 118.613281 154.738281 116.5625 156.558594 114.558594 C 158.382812 112.550781 160.25 110.589844 162.167969 108.671875 C 164.082031 106.757812 166.046875 104.886719 168.050781 103.066406 C 170.058594 101.242188 172.109375 99.472656 174.199219 97.75 C 176.292969 96.027344 178.425781 94.355469 180.597656 92.738281 C 182.769531 91.117188 184.980469 89.550781 187.230469 88.039062 C 189.480469 86.523438 191.761719 85.066406 194.082031 83.664062 C 196.402344 82.261719 198.753906 80.917969 201.136719 79.628906 C 203.519531 78.339844 205.933594 77.109375 208.378906 75.9375 C 210.820312 74.765625 213.292969 73.652344 215.789062 72.601562 C 218.285156 71.546875 220.808594 70.554688 223.351562 69.625 C 225.898438 68.691406 228.464844 67.824219 231.050781 67.015625 C 233.636719 66.210938 236.242188 65.464844 238.867188 64.785156 C 241.488281 64.101562 244.125 63.484375 246.78125 62.933594 C 249.433594 62.378906 252.097656 61.890625 254.773438 61.464844 C 257.449219 61.039062 260.136719 60.679688 262.828125 60.382812 C 265.523438 60.089844 268.222656 59.859375 270.929688 59.691406 C 273.632812 59.527344 276.339844 59.429688 279.050781 59.394531 C 281.761719 59.359375 284.46875 59.390625 287.179688 59.488281 C 289.886719 59.585938 292.589844 59.746094 295.292969 59.976562 C 297.992188 60.203125 300.683594 60.496094 303.371094 60.851562 C 306.058594 61.210938 308.734375 61.632812 311.398438 62.121094 C 314.066406 62.605469 316.71875 63.15625 319.359375 63.773438 C 321.996094 64.386719 324.621094 65.066406 327.226562 65.808594 C 329.832031 66.550781 332.421875 67.355469 334.988281 68.21875 C 337.554688 69.085938 340.101562 70.015625 342.625 71.003906 C 345.148438 71.996094 347.644531 73.042969 350.117188 74.15625 C 352.589844 75.265625 355.035156 76.433594 357.449219 77.664062 C 359.863281 78.890625 362.25 80.179688 364.601562 81.519531 C 366.957031 82.863281 369.277344 84.265625 371.5625 85.71875 C 373.847656 87.175781 376.097656 88.6875 378.3125 90.25 C 380.523438 91.816406 382.699219 93.433594 384.832031 95.101562 C 386.96875 96.769531 389.0625 98.492188 391.113281 100.261719 C 393.164062 102.03125 395.171875 103.851562 397.136719 105.71875 C 399.101562 107.585938 401.015625 109.5 402.890625 111.460938 C 404.761719 113.421875 406.582031 115.425781 408.359375 117.472656 C 410.132812 119.519531 411.855469 121.609375 413.53125 123.742188 C 415.203125 125.875 416.824219 128.042969 418.394531 130.253906 C 419.960938 132.464844 421.476562 134.710938 422.9375 136.992188 C 424.398438 139.277344 425.800781 141.59375 427.148438 143.945312 C 428.5 146.296875 429.789062 148.675781 431.023438 151.089844 C 432.257812 153.503906 433.429688 155.945312 434.546875 158.414062 C 435.660156 160.886719 436.714844 163.382812 437.710938 165.902344 C 438.707031 168.421875 439.636719 170.964844 440.511719 173.53125 C 441.382812 176.097656 442.191406 178.683594 442.9375 181.289062 C 443.683594 183.894531 444.367188 186.515625 444.988281 189.152344 C 445.609375 191.792969 446.164062 194.445312 446.65625 197.109375 C 447.148438 199.773438 447.578125 202.449219 447.941406 205.136719 C 448.304688 207.820312 448.601562 210.511719 448.835938 213.214844 C 449.066406 215.914062 449.234375 218.617188 449.335938 221.324219 L 430.914062 221.324219 C 430.8125 218.917969 430.652344 216.511719 430.433594 214.113281 C 430.214844 211.710938 429.9375 209.316406 429.605469 206.929688 C 429.273438 204.542969 428.882812 202.164062 428.433594 199.796875 C 427.984375 197.429688 427.480469 195.074219 426.917969 192.730469 C 426.355469 190.386719 425.738281 188.054688 425.0625 185.742188 C 424.390625 183.425781 423.660156 181.128906 422.875 178.851562 C 422.089844 176.574219 421.25 174.3125 420.355469 172.074219 C 419.460938 169.835938 418.515625 167.621094 417.515625 165.429688 C 416.515625 163.234375 415.460938 161.066406 414.355469 158.925781 C 413.25 156.785156 412.09375 154.667969 410.886719 152.582031 C 409.679688 150.496094 408.421875 148.441406 407.117188 146.414062 C 405.808594 144.390625 404.457031 142.398438 403.050781 140.4375 C 401.648438 138.476562 400.199219 136.550781 398.707031 134.660156 C 397.210938 132.769531 395.671875 130.917969 394.085938 129.101562 C 392.5 127.285156 390.871094 125.507812 389.203125 123.769531 C 387.53125 122.03125 385.820312 120.335938 384.066406 118.679688 C 382.316406 117.023438 380.523438 115.414062 378.695312 113.84375 C 376.863281 112.273438 374.996094 110.75 373.09375 109.273438 C 371.191406 107.792969 369.253906 106.363281 367.28125 104.976562 C 365.308594 103.59375 363.300781 102.253906 361.265625 100.964844 C 359.226562 99.679688 357.160156 98.4375 355.0625 97.25 C 352.96875 96.0625 350.84375 94.925781 348.691406 93.835938 C 346.539062 92.75 344.363281 91.71875 342.160156 90.734375 C 339.960938 89.753906 337.734375 88.828125 335.488281 87.953125 C 333.242188 87.078125 330.976562 86.257812 328.691406 85.492188 C 326.40625 84.730469 324.101562 84.019531 321.78125 83.367188 C 319.460938 82.710938 317.128906 82.113281 314.777344 81.574219 C 312.429688 81.03125 310.070312 80.546875 307.695312 80.121094 C 305.324219 79.695312 302.945312 79.324219 300.554688 79.011719 C 298.164062 78.699219 295.765625 78.445312 293.363281 78.246094 C 290.960938 78.050781 288.558594 77.910156 286.148438 77.832031 C 283.738281 77.75 281.328125 77.726562 278.917969 77.761719 C 276.507812 77.796875 274.101562 77.890625 271.695312 78.042969 C 269.289062 78.195312 266.890625 78.402344 264.492188 78.671875 C 262.097656 78.9375 259.710938 79.261719 257.328125 79.644531 C 254.949219 80.027344 252.582031 80.46875 250.222656 80.964844 C 247.863281 81.460938 245.519531 82.015625 243.1875 82.625 C 240.855469 83.234375 238.539062 83.898438 236.238281 84.621094 C 233.9375 85.34375 231.65625 86.117188 229.394531 86.949219 C 227.132812 87.78125 224.890625 88.667969 222.671875 89.605469 C 220.453125 90.546875 218.257812 91.539062 216.085938 92.585938 C 213.914062 93.628906 211.765625 94.726562 209.648438 95.875 C 207.527344 97.027344 205.4375 98.226562 203.378906 99.476562 C 201.316406 100.726562 199.285156 102.023438 197.289062 103.371094 C 195.289062 104.71875 193.324219 106.113281 191.394531 107.558594 C 189.464844 109 187.566406 110.488281 185.707031 112.019531 C 183.847656 113.554688 182.027344 115.132812 180.246094 116.753906 C 178.460938 118.375 176.71875 120.039062 175.015625 121.746094 C 173.3125 123.453125 171.652344 125.199219 170.03125 126.984375 C 168.414062 128.769531 166.839844 130.59375 165.308594 132.457031 C 163.777344 134.316406 162.292969 136.214844 160.851562 138.148438 C 159.414062 140.082031 158.019531 142.050781 156.675781 144.050781 C 155.332031 146.050781 154.035156 148.082031 152.789062 150.144531 C 151.542969 152.207031 150.347656 154.300781 149.203125 156.421875 C 148.054688 158.542969 146.960938 160.6875 145.921875 162.863281 C 144.878906 165.035156 143.890625 167.234375 142.953125 169.457031 C 142.015625 171.675781 141.136719 173.917969 140.308594 176.183594 C 139.480469 178.445312 138.707031 180.730469 137.988281 183.03125 C 137.273438 185.332031 136.609375 187.648438 136.003906 189.980469 C 135.398438 192.3125 134.847656 194.660156 134.355469 197.019531 C 133.863281 199.378906 133.425781 201.75 133.046875 204.128906 C 132.667969 206.511719 132.347656 208.898438 132.085938 211.292969 C 131.820312 213.691406 131.617188 216.089844 131.46875 218.496094 C 131.320312 220.902344 131.230469 223.3125 131.199219 225.722656 C 131.167969 228.132812 131.195312 230.542969 131.28125 232.949219 C 131.363281 235.359375 131.507812 237.765625 131.707031 240.167969 C 131.910156 242.570312 132.167969 244.964844 132.484375 247.355469 C 132.800781 249.742188 133.175781 252.125 133.605469 254.496094 C 134.035156 256.867188 134.523438 259.226562 135.070312 261.574219 C 135.613281 263.921875 136.214844 266.257812 136.875 268.574219 C 137.53125 270.894531 138.246094 273.195312 139.011719 275.480469 C 139.78125 277.765625 140.605469 280.03125 141.484375 282.277344 C 142.359375 284.519531 143.292969 286.742188 144.277344 288.941406 C 145.261719 291.144531 146.300781 293.316406 147.390625 295.46875 C 148.480469 297.617188 149.621094 299.738281 150.8125 301.835938 C 152.003906 303.929688 153.246094 305.996094 154.539062 308.03125 C 155.832031 310.066406 157.171875 312.066406 158.558594 314.039062 C 159.949219 316.007812 161.382812 317.945312 162.863281 319.84375 C 164.347656 321.746094 165.871094 323.609375 167.445312 325.4375 C 169.015625 327.265625 170.632812 329.054688 172.289062 330.804688 C 173.945312 332.554688 175.644531 334.261719 177.386719 335.929688 C 179.128906 337.597656 180.90625 339.222656 182.726562 340.804688 C 184.542969 342.386719 186.398438 343.921875 188.292969 345.414062 C 190.1875 346.90625 192.113281 348.355469 194.078125 349.753906 C 196.039062 351.152344 198.035156 352.503906 200.0625 353.808594 C 202.089844 355.109375 204.148438 356.363281 206.234375 357.566406 C 208.324219 358.769531 210.441406 359.925781 212.585938 361.027344 C 214.726562 362.128906 216.898438 363.175781 219.089844 364.175781 C 221.285156 365.171875 223.503906 366.117188 225.742188 367.003906 C 227.984375 367.894531 230.242188 368.730469 232.523438 369.511719 C 234.804688 370.292969 237.101562 371.019531 239.417969 371.691406 C 241.734375 372.359375 244.0625 372.976562 246.40625 373.53125 C 248.753906 374.089844 251.109375 374.59375 253.480469 375.035156 C 255.847656 375.480469 258.226562 375.867188 260.613281 376.199219 C 263.003906 376.527344 265.394531 376.800781 267.796875 377.011719 C 270.199219 377.226562 272.601562 377.382812 275.011719 377.480469 Z M 274.820312 395.84375 " fill-opacity="1" fill-rule="nonzero"/></g><path fill="#ed4e1f" d="M 287.273438 115.992188 L 287.273438 106.082031 C 287.089844 105.410156 286.804688 104.785156 286.414062 104.207031 C 286.027344 103.625 285.554688 103.125 285 102.703125 C 284.445312 102.277344 283.839844 101.957031 283.179688 101.730469 C 282.519531 101.507812 281.839844 101.394531 281.140625 101.394531 C 280.445312 101.394531 279.765625 101.507812 279.105469 101.730469 C 278.445312 101.957031 277.835938 102.277344 277.285156 102.703125 C 276.730469 103.125 276.257812 103.625 275.867188 104.207031 C 275.480469 104.785156 275.195312 105.410156 275.011719 106.082031 L 275.011719 115.992188 C 275.195312 116.667969 275.480469 117.292969 275.867188 117.871094 C 276.257812 118.449219 276.730469 118.949219 277.285156 119.375 C 277.835938 119.796875 278.445312 120.121094 279.105469 120.34375 C 279.765625 120.570312 280.445312 120.679688 281.140625 120.679688 C 281.839844 120.679688 282.519531 120.570312 283.179688 120.34375 C 283.839844 120.121094 284.445312 119.796875 285 119.375 C 285.554688 118.949219 286.027344 118.449219 286.414062 117.871094 C 286.804688 117.292969 287.089844 116.667969 287.273438 115.992188 Z M 287.273438 115.992188 " fill-opacity="1" fill-rule="nonzero"/><path fill="#ed4e1f" d="M 281.171875 333.265625 C 280.757812 333.265625 280.34375 333.304688 279.933594 333.386719 C 279.523438 333.46875 279.128906 333.589844 278.742188 333.75 C 278.355469 333.910156 277.992188 334.105469 277.644531 334.335938 C 277.296875 334.566406 276.976562 334.832031 276.679688 335.125 C 276.386719 335.421875 276.125 335.742188 275.890625 336.089844 C 275.660156 336.433594 275.464844 336.800781 275.304688 337.1875 C 275.144531 337.574219 275.023438 337.96875 274.941406 338.378906 C 274.863281 338.789062 274.820312 339.199219 274.820312 339.617188 L 274.820312 349.527344 C 275.003906 350.203125 275.289062 350.828125 275.679688 351.40625 C 276.066406 351.984375 276.539062 352.484375 277.09375 352.910156 C 277.648438 353.332031 278.253906 353.65625 278.914062 353.878906 C 279.574219 354.105469 280.253906 354.214844 280.953125 354.214844 C 281.648438 354.214844 282.328125 354.105469 282.988281 353.878906 C 283.648438 353.65625 284.253906 353.332031 284.808594 352.910156 C 285.363281 352.484375 285.835938 351.984375 286.222656 351.40625 C 286.613281 350.828125 286.898438 350.203125 287.082031 349.527344 L 287.082031 339.363281 C 287.066406 338.976562 287.015625 338.59375 286.933594 338.210938 C 286.847656 337.832031 286.730469 337.464844 286.574219 337.109375 C 286.421875 336.75 286.238281 336.410156 286.023438 336.085938 C 285.808594 335.761719 285.566406 335.460938 285.296875 335.183594 C 285.027344 334.902344 284.734375 334.652344 284.414062 334.425781 C 284.097656 334.199219 283.765625 334.007812 283.414062 333.84375 C 283.058594 333.679688 282.695312 333.546875 282.320312 333.449219 C 281.941406 333.355469 281.5625 333.292969 281.171875 333.265625 Z M 281.171875 333.265625 " fill-opacity="1" fill-rule="nonzero"/><path fill="#ed4e1f" d="M 392.796875 234.03125 L 402.640625 234.03125 C 403.328125 233.859375 403.96875 233.582031 404.5625 233.195312 C 405.15625 232.808594 405.671875 232.335938 406.105469 231.777344 C 406.542969 231.21875 406.875 230.605469 407.105469 229.9375 C 407.335938 229.265625 407.449219 228.578125 407.449219 227.871094 C 407.449219 227.160156 407.335938 226.472656 407.105469 225.804688 C 406.875 225.132812 406.542969 224.519531 406.105469 223.960938 C 405.671875 223.402344 405.15625 222.929688 404.5625 222.542969 C 403.96875 222.160156 403.328125 221.878906 402.640625 221.707031 L 392.796875 221.707031 C 392.328125 221.589844 391.851562 221.527344 391.367188 221.515625 C 390.886719 221.507812 390.40625 221.554688 389.9375 221.652344 C 389.464844 221.753906 389.007812 221.90625 388.570312 222.109375 C 388.132812 222.3125 387.722656 222.5625 387.34375 222.859375 C 386.960938 223.15625 386.621094 223.492188 386.316406 223.867188 C 386.011719 224.246094 385.753906 224.648438 385.542969 225.082031 C 385.328125 225.515625 385.167969 225.96875 385.0625 226.4375 C 384.953125 226.910156 384.898438 227.386719 384.898438 227.871094 C 384.898438 228.351562 384.953125 228.828125 385.0625 229.300781 C 385.167969 229.769531 385.328125 230.222656 385.542969 230.65625 C 385.753906 231.089844 386.011719 231.496094 386.316406 231.871094 C 386.621094 232.246094 386.960938 232.582031 387.34375 232.878906 C 387.722656 233.175781 388.132812 233.425781 388.570312 233.628906 C 389.007812 233.832031 389.464844 233.984375 389.9375 234.085938 C 390.40625 234.183594 390.886719 234.230469 391.367188 234.222656 C 391.851562 234.210938 392.328125 234.148438 392.796875 234.03125 Z M 392.796875 234.03125 " fill-opacity="1" fill-rule="nonzero"/><path fill="#ed4e1f" d="M 159.578125 221.324219 C 158.890625 221.496094 158.25 221.777344 157.65625 222.164062 C 157.0625 222.550781 156.550781 223.023438 156.113281 223.578125 C 155.679688 224.136719 155.34375 224.753906 155.113281 225.421875 C 154.882812 226.089844 154.769531 226.78125 154.769531 227.488281 C 154.769531 228.195312 154.882812 228.886719 155.113281 229.554688 C 155.34375 230.222656 155.679688 230.839844 156.113281 231.398438 C 156.550781 231.953125 157.0625 232.425781 157.65625 232.8125 C 158.25 233.199219 158.890625 233.476562 159.578125 233.652344 L 169.425781 233.652344 C 169.894531 233.769531 170.367188 233.832031 170.851562 233.839844 C 171.335938 233.847656 171.8125 233.804688 172.285156 233.703125 C 172.757812 233.605469 173.210938 233.453125 173.648438 233.25 C 174.085938 233.042969 174.496094 232.792969 174.878906 232.496094 C 175.257812 232.199219 175.601562 231.863281 175.90625 231.488281 C 176.207031 231.113281 176.464844 230.707031 176.679688 230.273438 C 176.890625 229.839844 177.050781 229.390625 177.160156 228.917969 C 177.269531 228.449219 177.324219 227.972656 177.324219 227.488281 C 177.324219 227.003906 177.269531 226.527344 177.160156 226.058594 C 177.050781 225.585938 176.890625 225.136719 176.679688 224.703125 C 176.464844 224.269531 176.207031 223.863281 175.90625 223.488281 C 175.601562 223.113281 175.257812 222.777344 174.878906 222.480469 C 174.496094 222.183594 174.085938 221.933594 173.648438 221.726562 C 173.210938 221.523438 172.757812 221.371094 172.285156 221.273438 C 171.8125 221.171875 171.335938 221.128906 170.851562 221.136719 C 170.367188 221.144531 169.894531 221.207031 169.425781 221.324219 Z M 159.578125 221.324219 " fill-opacity="1" fill-rule="nonzero"/><path fill="#ed4e1f" d="M 234.289062 182.445312 C 234.015625 182.738281 233.769531 183.050781 233.554688 183.390625 C 233.339844 183.730469 233.160156 184.085938 233.011719 184.457031 C 232.863281 184.828125 232.753906 185.210938 232.675781 185.605469 C 232.601562 186 232.5625 186.398438 232.5625 186.796875 C 232.5625 187.199219 232.601562 187.59375 232.675781 187.988281 C 232.753906 188.382812 232.863281 188.765625 233.011719 189.136719 C 233.160156 189.511719 233.339844 189.867188 233.554688 190.203125 C 233.769531 190.542969 234.015625 190.855469 234.289062 191.148438 L 276.664062 232.0625 C 277.113281 232.519531 277.625 232.894531 278.199219 233.1875 C 278.769531 233.480469 279.375 233.675781 280.011719 233.769531 C 280.644531 233.867188 281.28125 233.863281 281.914062 233.753906 C 282.546875 233.648438 283.148438 233.445312 283.714844 233.140625 L 374.371094 187.910156 C 374.84375 187.804688 375.296875 187.652344 375.730469 187.445312 C 376.167969 187.238281 376.574219 186.984375 376.953125 186.6875 C 377.332031 186.386719 377.671875 186.050781 377.972656 185.671875 C 378.273438 185.296875 378.53125 184.890625 378.738281 184.457031 C 378.949219 184.019531 379.105469 183.570312 379.210938 183.097656 C 379.316406 182.628906 379.371094 182.152344 379.367188 181.667969 C 379.363281 181.1875 379.308594 180.710938 379.195312 180.242188 C 379.085938 179.773438 378.921875 179.320312 378.710938 178.886719 C 378.496094 178.457031 378.234375 178.054688 377.929688 177.679688 C 377.625 177.304688 377.28125 176.972656 376.898438 176.675781 C 376.519531 176.382812 376.109375 176.132812 375.671875 175.933594 C 375.230469 175.730469 374.777344 175.582031 374.304688 175.484375 C 373.832031 175.382812 373.355469 175.339844 372.871094 175.351562 C 372.390625 175.363281 371.914062 175.425781 371.449219 175.546875 C 370.980469 175.664062 370.53125 175.835938 370.101562 176.054688 C 369.675781 176.277344 369.277344 176.542969 368.90625 176.855469 L 282.253906 220.246094 L 242.992188 182.128906 C 242.691406 181.863281 242.367188 181.628906 242.019531 181.429688 C 241.675781 181.226562 241.3125 181.058594 240.933594 180.921875 C 240.558594 180.789062 240.167969 180.691406 239.773438 180.628906 C 239.375 180.570312 238.976562 180.546875 238.578125 180.5625 C 238.175781 180.574219 237.78125 180.628906 237.390625 180.71875 C 237 180.808594 236.621094 180.933594 236.253906 181.09375 C 235.886719 181.253906 235.539062 181.449219 235.207031 181.675781 C 234.875 181.902344 234.570312 182.160156 234.289062 182.445312 Z M 234.289062 182.445312 " fill-opacity="1" fill-rule="nonzero"/><path fill="#ed4e1f" d="M 376.023438 353.46875 L 326.152344 353.46875 C 355.695312 327.292969 373.039062 299.53125 372.273438 278.757812 C 372.253906 276.550781 371.964844 274.382812 371.40625 272.25 C 370.851562 270.117188 370.042969 268.085938 368.984375 266.152344 C 367.925781 264.21875 366.648438 262.441406 365.152344 260.824219 C 363.65625 259.203125 361.984375 257.792969 360.140625 256.585938 C 359.148438 255.960938 358.128906 255.375 357.085938 254.835938 C 356.042969 254.292969 354.980469 253.796875 353.898438 253.34375 C 352.8125 252.894531 351.714844 252.488281 350.59375 252.125 C 349.476562 251.765625 348.347656 251.453125 347.203125 251.1875 C 346.058594 250.921875 344.90625 250.703125 343.746094 250.53125 C 342.582031 250.363281 341.414062 250.242188 340.242188 250.167969 C 339.070312 250.09375 337.898438 250.070312 336.722656 250.097656 C 335.550781 250.121094 334.378906 250.195312 333.210938 250.320312 C 332.042969 250.441406 330.882812 250.613281 329.730469 250.832031 C 328.574219 251.050781 327.433594 251.320312 326.300781 251.632812 C 325.171875 251.949219 324.054688 252.308594 322.953125 252.71875 C 321.851562 253.125 320.769531 253.578125 319.707031 254.078125 C 318.640625 254.574219 317.601562 255.117188 316.582031 255.703125 C 315.566406 256.285156 314.574219 256.914062 313.605469 257.582031 C 312.640625 258.25 311.703125 258.957031 310.796875 259.703125 C 309.890625 260.449219 309.015625 261.230469 308.171875 262.046875 C 307.738281 262.273438 307.335938 262.546875 306.960938 262.867188 C 306.589844 263.1875 306.257812 263.546875 305.96875 263.945312 C 305.679688 264.34375 305.441406 264.765625 305.25 265.21875 C 305.058594 265.671875 304.921875 266.140625 304.84375 266.625 C 304.761719 267.109375 304.734375 267.597656 304.765625 268.085938 C 304.796875 268.578125 304.882812 269.054688 305.027344 269.527344 C 305.167969 269.996094 305.363281 270.445312 305.609375 270.867188 C 305.855469 271.292969 306.148438 271.683594 306.484375 272.042969 C 306.820312 272.398438 307.195312 272.714844 307.601562 272.984375 C 308.011719 273.253906 308.449219 273.476562 308.910156 273.644531 C 309.371094 273.816406 309.84375 273.929688 310.332031 273.988281 C 310.820312 274.050781 311.308594 274.054688 311.796875 274 C 312.285156 273.945312 312.757812 273.835938 313.222656 273.675781 C 313.683594 273.511719 314.125 273.296875 314.535156 273.03125 C 314.949219 272.765625 315.328125 272.457031 315.667969 272.105469 C 316.011719 271.75 316.308594 271.363281 316.558594 270.941406 C 317.257812 270.308594 334.410156 254.359375 353.28125 266.875 C 354.292969 267.554688 355.203125 268.347656 356.011719 269.257812 C 356.820312 270.167969 357.503906 271.164062 358.058594 272.25 C 358.613281 273.332031 359.023438 274.46875 359.292969 275.65625 C 359.558594 276.84375 359.671875 278.046875 359.632812 279.265625 C 360.269531 295.273438 343.625 324.816406 305.0625 354.800781 C 304.609375 355.222656 304.226562 355.695312 303.910156 356.226562 C 303.597656 356.757812 303.367188 357.324219 303.21875 357.921875 C 303.066406 358.519531 303.007812 359.128906 303.035156 359.742188 C 303.0625 360.359375 303.175781 360.957031 303.378906 361.542969 C 303.582031 362.125 303.863281 362.664062 304.222656 363.167969 C 304.582031 363.667969 305.003906 364.105469 305.492188 364.484375 C 305.980469 364.863281 306.511719 365.160156 307.085938 365.382812 C 307.664062 365.605469 308.257812 365.742188 308.871094 365.792969 L 376.023438 365.792969 C 376.710938 365.621094 377.351562 365.339844 377.945312 364.953125 C 378.539062 364.570312 379.050781 364.097656 379.488281 363.539062 C 379.921875 362.980469 380.257812 362.367188 380.488281 361.695312 C 380.714844 361.027344 380.832031 360.339844 380.832031 359.628906 C 380.832031 358.921875 380.714844 358.234375 380.488281 357.5625 C 380.257812 356.894531 379.921875 356.28125 379.488281 355.722656 C 379.050781 355.164062 378.539062 354.691406 377.945312 354.304688 C 377.351562 353.917969 376.710938 353.640625 376.023438 353.46875 Z M 376.023438 353.46875 " fill-opacity="1" fill-rule="nonzero"/><g clip-path="url(#78fc72ad96)"><path fill="#ed4e1f" d="M 462.679688 322.972656 L 454.355469 322.972656 L 453.277344 256.332031 C 453.214844 255.71875 453.070312 255.125 452.835938 254.554688 C 452.605469 253.980469 452.292969 253.457031 451.910156 252.976562 C 451.523438 252.492188 451.078125 252.078125 450.570312 251.726562 C 450.0625 251.375 449.515625 251.105469 448.929688 250.910156 C 448.34375 250.71875 447.742188 250.617188 447.125 250.597656 C 446.511719 250.582031 445.902344 250.652344 445.308594 250.8125 C 444.710938 250.972656 444.152344 251.214844 443.625 251.535156 C 443.101562 251.859375 442.632812 252.25 442.222656 252.710938 L 387.96875 325.070312 C 387.8125 325.300781 387.675781 325.539062 387.554688 325.785156 C 387.433594 326.035156 387.328125 326.289062 387.242188 326.550781 C 387.152344 326.8125 387.082031 327.078125 387.027344 327.351562 C 386.976562 327.621094 386.941406 327.894531 386.921875 328.167969 C 386.902344 328.445312 386.902344 328.71875 386.921875 328.996094 C 386.941406 329.269531 386.976562 329.542969 387.03125 329.816406 C 387.082031 330.085938 387.152344 330.351562 387.242188 330.613281 C 387.332031 330.875 387.4375 331.128906 387.558594 331.378906 C 387.679688 331.625 387.816406 331.863281 387.96875 332.09375 C 388.121094 332.324219 388.289062 332.542969 388.46875 332.753906 C 388.652344 332.960938 388.84375 333.15625 389.050781 333.339844 C 389.257812 333.523438 389.476562 333.691406 389.703125 333.84375 C 389.933594 334 390.171875 334.140625 390.417969 334.261719 C 390.664062 334.386719 390.917969 334.492188 391.179688 334.582031 C 391.441406 334.675781 391.707031 334.746094 391.976562 334.804688 C 392.246094 334.859375 392.519531 334.898438 392.796875 334.917969 L 442.09375 334.917969 L 442.476562 358.929688 C 442.476562 359.347656 442.515625 359.761719 442.597656 360.171875 C 442.679688 360.578125 442.800781 360.976562 442.960938 361.363281 C 443.117188 361.746094 443.3125 362.113281 443.546875 362.460938 C 443.777344 362.808594 444.042969 363.128906 444.335938 363.421875 C 444.632812 363.71875 444.953125 363.980469 445.300781 364.214844 C 445.644531 364.445312 446.011719 364.640625 446.398438 364.800781 C 446.78125 364.960938 447.179688 365.082031 447.589844 365.160156 C 448 365.242188 448.410156 365.285156 448.828125 365.285156 C 449.246094 365.285156 449.660156 365.242188 450.066406 365.160156 C 450.476562 365.082031 450.875 364.960938 451.257812 364.800781 C 451.644531 364.640625 452.011719 364.445312 452.359375 364.214844 C 452.703125 363.980469 453.027344 363.71875 453.320312 363.421875 C 453.617188 363.128906 453.878906 362.808594 454.109375 362.460938 C 454.34375 362.113281 454.539062 361.746094 454.699219 361.363281 C 454.855469 360.976562 454.976562 360.578125 455.058594 360.171875 C 455.140625 359.761719 455.179688 359.347656 455.179688 358.929688 L 454.800781 335.109375 L 462.679688 335.109375 C 463.152344 335.253906 463.640625 335.34375 464.136719 335.378906 C 464.632812 335.414062 465.125 335.386719 465.617188 335.304688 C 466.109375 335.222656 466.582031 335.085938 467.042969 334.890625 C 467.5 334.695312 467.929688 334.449219 468.328125 334.15625 C 468.730469 333.859375 469.089844 333.523438 469.414062 333.144531 C 469.734375 332.761719 470.007812 332.351562 470.230469 331.90625 C 470.457031 331.460938 470.625 330.996094 470.742188 330.511719 C 470.855469 330.027344 470.914062 329.539062 470.914062 329.039062 C 470.914062 328.542969 470.855469 328.050781 470.742188 327.566406 C 470.625 327.082031 470.457031 326.617188 470.230469 326.175781 C 470.007812 325.730469 469.734375 325.316406 469.414062 324.9375 C 469.089844 324.558594 468.730469 324.21875 468.328125 323.925781 C 467.929688 323.628906 467.5 323.386719 467.042969 323.191406 C 466.582031 322.996094 466.109375 322.859375 465.617188 322.777344 C 465.125 322.691406 464.632812 322.667969 464.136719 322.703125 C 463.640625 322.734375 463.152344 322.824219 462.679688 322.972656 Z M 405.5 322.972656 L 441.585938 274.5625 L 442.03125 322.972656 Z M 405.5 322.972656 " fill-opacity="1" fill-rule="nonzero"/></g></svg>