<svg xmlns="http://www.w3.org/2000/svg" xmlns:xlink="http://www.w3.org/1999/xlink" width="763" zoomAndPan="magnify" viewBox="0 0 572.25 455.999984" height="608" preserveAspectRatio="xMidYMid meet" version="1.0"><defs><clipPath id="e2e222a3b2"><path d="M 0 0.296875 L 571.5 0.296875 L 571.5 455.699219 L 0 455.699219 Z M 0 0.296875 " clip-rule="nonzero"/></clipPath><clipPath id="a26554d4dd"><path d="M 108.144531 46.996094 L 463.179688 46.996094 L 463.179688 409.046875 L 108.144531 409.046875 Z M 108.144531 46.996094 " clip-rule="nonzero"/></clipPath></defs><g clip-path="url(#e2e222a3b2)"><path fill="#ffffff" d="M 0 0.296875 L 571.5 0.296875 L 571.5 455.703125 L 0 455.703125 Z M 0 0.296875 " fill-opacity="1" fill-rule="nonzero"/><path fill="#ffffff" d="M 0 0.296875 L 571.5 0.296875 L 571.5 455.703125 L 0 455.703125 Z M 0 0.296875 " fill-opacity="1" fill-rule="nonzero"/></g><g clip-path="url(#a26554d4dd)"><path fill="#ed4e1f" d="M 462.835938 116.910156 L 463.070312 116.265625 L 285.777344 46.996094 L 108.753906 116.984375 L 108.160156 116.75 L 108.160156 117.199219 L 108.144531 117.214844 L 108.160156 117.289062 L 108.160156 339.472656 L 285.6875 409.046875 L 463.230469 339.457031 L 463.230469 116.75 Z M 285.597656 60.621094 L 345.75 82.160156 L 181.792969 145.792969 L 126.273438 123.894531 Z M 279.367188 393.359375 L 212.882812 366.507812 L 179.511719 353.976562 L 120.851562 330.839844 L 120.851562 135.398438 L 178.921875 158.304688 L 178.921875 207.164062 L 184.089844 205.726562 L 187.589844 210.519531 L 192.453125 209.390625 L 197.175781 214.378906 L 201.285156 212.945312 L 207.925781 219.53125 L 207.925781 169.738281 L 213.097656 171.785156 L 279.367188 197.917969 Z M 285.707031 186.789062 L 220.871094 161.210938 L 380.75 96.410156 L 446.699219 123.28125 Z M 450.558594 330.839844 L 292.042969 393.359375 L 292.042969 197.917969 L 450.539062 135.382812 L 450.539062 330.839844 Z M 450.558594 330.839844 " fill-opacity="1" fill-rule="nonzero"/></g></svg>