<svg xmlns="http://www.w3.org/2000/svg" xmlns:xlink="http://www.w3.org/1999/xlink" width="740" zoomAndPan="magnify" viewBox="0 0 555 590.249965" height="787" preserveAspectRatio="xMidYMid meet" version="1.0"><defs><clipPath id="f693f00b58"><path d="M 0.351562 0 L 554.648438 0 L 554.648438 589.5 L 0.351562 589.5 Z M 0.351562 0 " clip-rule="nonzero"/></clipPath><clipPath id="316d6ab2a5"><path d="M 470 0 L 554.648438 0 L 554.648438 154 L 470 154 Z M 470 0 " clip-rule="nonzero"/></clipPath><clipPath id="7b3d1c2143"><path d="M 422.304688 -13.996094 L 597.4375 -163.019531 L 771.703125 41.777344 L 596.570312 190.804688 Z M 422.304688 -13.996094 " clip-rule="nonzero"/></clipPath><clipPath id="6fd8f513ba"><path d="M 422.304688 -13.996094 L 597.4375 -163.019531 L 771.703125 41.777344 L 596.570312 190.804688 Z M 422.304688 -13.996094 " clip-rule="nonzero"/></clipPath><clipPath id="10876f7f6f"><path d="M 686.335938 113.25 C 717.726562 79.203125 700.375 -37.125 679.566406 -65.917969 C 627.90625 -137.453125 472.691406 -114.816406 470.742188 -20.496094 C 469.253906 53.300781 544.214844 2.339844 535.453125 73.585938 C 522.574219 178.558594 635.835938 168.054688 686.335938 113.25 Z M 686.335938 113.25 " clip-rule="nonzero"/></clipPath><linearGradient x1="-287.654685" gradientTransform="matrix(-1.283541, -1.50844, -1.50844, 1.283541, -357.220247, 206.393904)" y1="-429.88" x2="-191.053881" gradientUnits="userSpaceOnUse" y2="-429.88" id="86fa889dc1"><stop stop-opacity="1" stop-color="rgb(97.946167%, 42.762756%, 6.45752%)" offset="0"/><stop stop-opacity="1" stop-color="rgb(97.927856%, 42.835999%, 6.564331%)" offset="0.0078125"/><stop stop-opacity="1" stop-color="rgb(97.892761%, 42.982483%, 6.781006%)" offset="0.015625"/><stop stop-opacity="1" stop-color="rgb(97.857666%, 43.128967%, 6.996155%)" offset="0.0234375"/><stop stop-opacity="1" stop-color="rgb(97.822571%, 43.275452%, 7.211304%)" offset="0.03125"/><stop stop-opacity="1" stop-color="rgb(97.787476%, 43.421936%, 7.427979%)" offset="0.0390625"/><stop stop-opacity="1" stop-color="rgb(97.75238%, 43.566895%, 7.643127%)" offset="0.046875"/><stop stop-opacity="1" stop-color="rgb(97.717285%, 43.713379%, 7.859802%)" offset="0.0546875"/><stop stop-opacity="1" stop-color="rgb(97.68219%, 43.859863%, 8.074951%)" offset="0.0625"/><stop stop-opacity="1" stop-color="rgb(97.647095%, 44.006348%, 8.2901%)" offset="0.0703125"/><stop stop-opacity="1" stop-color="rgb(97.612%, 44.152832%, 8.506775%)" offset="0.078125"/><stop stop-opacity="1" stop-color="rgb(97.576904%, 44.299316%, 8.721924%)" offset="0.0859375"/><stop stop-opacity="1" stop-color="rgb(97.541809%, 44.444275%, 8.937073%)" offset="0.09375"/><stop stop-opacity="1" stop-color="rgb(97.506714%, 44.590759%, 9.153748%)" offset="0.101562"/><stop stop-opacity="1" stop-color="rgb(97.471619%, 44.737244%, 9.368896%)" offset="0.109375"/><stop stop-opacity="1" stop-color="rgb(97.436523%, 44.883728%, 9.585571%)" offset="0.117188"/><stop stop-opacity="1" stop-color="rgb(97.401428%, 45.030212%, 9.80072%)" offset="0.125"/><stop stop-opacity="1" stop-color="rgb(97.366333%, 45.176697%, 10.015869%)" offset="0.132812"/><stop stop-opacity="1" stop-color="rgb(97.331238%, 45.321655%, 10.232544%)" offset="0.140625"/><stop stop-opacity="1" stop-color="rgb(97.296143%, 45.46814%, 10.447693%)" offset="0.148438"/><stop stop-opacity="1" stop-color="rgb(97.261047%, 45.614624%, 10.662842%)" offset="0.15625"/><stop stop-opacity="1" stop-color="rgb(97.225952%, 45.761108%, 10.879517%)" offset="0.164063"/><stop stop-opacity="1" stop-color="rgb(97.192383%, 45.907593%, 11.094666%)" offset="0.171875"/><stop stop-opacity="1" stop-color="rgb(97.157288%, 46.052551%, 11.31134%)" offset="0.179688"/><stop stop-opacity="1" stop-color="rgb(97.122192%, 46.199036%, 11.526489%)" offset="0.1875"/><stop stop-opacity="1" stop-color="rgb(97.087097%, 46.34552%, 11.741638%)" offset="0.195312"/><stop stop-opacity="1" stop-color="rgb(97.052002%, 46.492004%, 11.958313%)" offset="0.203125"/><stop stop-opacity="1" stop-color="rgb(97.016907%, 46.638489%, 12.173462%)" offset="0.210938"/><stop stop-opacity="1" stop-color="rgb(96.981812%, 46.784973%, 12.388611%)" offset="0.21875"/><stop stop-opacity="1" stop-color="rgb(96.946716%, 46.929932%, 12.605286%)" offset="0.226563"/><stop stop-opacity="1" stop-color="rgb(96.911621%, 47.076416%, 12.820435%)" offset="0.234375"/><stop stop-opacity="1" stop-color="rgb(96.876526%, 47.2229%, 13.037109%)" offset="0.242187"/><stop stop-opacity="1" stop-color="rgb(96.841431%, 47.369385%, 13.252258%)" offset="0.25"/><stop stop-opacity="1" stop-color="rgb(96.806335%, 47.515869%, 13.467407%)" offset="0.257813"/><stop stop-opacity="1" stop-color="rgb(96.77124%, 47.662354%, 13.684082%)" offset="0.265625"/><stop stop-opacity="1" stop-color="rgb(96.736145%, 47.807312%, 13.899231%)" offset="0.273438"/><stop stop-opacity="1" stop-color="rgb(96.70105%, 47.953796%, 14.11438%)" offset="0.28125"/><stop stop-opacity="1" stop-color="rgb(96.665955%, 48.100281%, 14.331055%)" offset="0.289062"/><stop stop-opacity="1" stop-color="rgb(96.630859%, 48.246765%, 14.546204%)" offset="0.296875"/><stop stop-opacity="1" stop-color="rgb(96.595764%, 48.39325%, 14.762878%)" offset="0.304688"/><stop stop-opacity="1" stop-color="rgb(96.560669%, 48.539734%, 14.978027%)" offset="0.3125"/><stop stop-opacity="1" stop-color="rgb(96.525574%, 48.684692%, 15.193176%)" offset="0.320313"/><stop stop-opacity="1" stop-color="rgb(96.490479%, 48.831177%, 15.409851%)" offset="0.328125"/><stop stop-opacity="1" stop-color="rgb(96.455383%, 48.977661%, 15.625%)" offset="0.335938"/><stop stop-opacity="1" stop-color="rgb(96.421814%, 49.124146%, 15.840149%)" offset="0.34375"/><stop stop-opacity="1" stop-color="rgb(96.386719%, 49.27063%, 16.056824%)" offset="0.351563"/><stop stop-opacity="1" stop-color="rgb(96.351624%, 49.417114%, 16.271973%)" offset="0.359375"/><stop stop-opacity="1" stop-color="rgb(96.316528%, 49.562073%, 16.488647%)" offset="0.367188"/><stop stop-opacity="1" stop-color="rgb(96.281433%, 49.708557%, 16.703796%)" offset="0.375"/><stop stop-opacity="1" stop-color="rgb(96.246338%, 49.855042%, 16.918945%)" offset="0.382812"/><stop stop-opacity="1" stop-color="rgb(96.211243%, 50.001526%, 17.13562%)" offset="0.390625"/><stop stop-opacity="1" stop-color="rgb(96.176147%, 50.14801%, 17.350769%)" offset="0.398438"/><stop stop-opacity="1" stop-color="rgb(96.141052%, 50.294495%, 17.565918%)" offset="0.40625"/><stop stop-opacity="1" stop-color="rgb(96.105957%, 50.439453%, 17.782593%)" offset="0.414063"/><stop stop-opacity="1" stop-color="rgb(96.070862%, 50.585938%, 17.997742%)" offset="0.421875"/><stop stop-opacity="1" stop-color="rgb(96.035767%, 50.732422%, 18.214417%)" offset="0.429688"/><stop stop-opacity="1" stop-color="rgb(96.000671%, 50.878906%, 18.429565%)" offset="0.4375"/><stop stop-opacity="1" stop-color="rgb(95.965576%, 51.025391%, 18.644714%)" offset="0.445312"/><stop stop-opacity="1" stop-color="rgb(95.930481%, 51.171875%, 18.861389%)" offset="0.453125"/><stop stop-opacity="1" stop-color="rgb(95.895386%, 51.316833%, 19.076538%)" offset="0.460937"/><stop stop-opacity="1" stop-color="rgb(95.860291%, 51.463318%, 19.291687%)" offset="0.46875"/><stop stop-opacity="1" stop-color="rgb(95.825195%, 51.609802%, 19.508362%)" offset="0.476563"/><stop stop-opacity="1" stop-color="rgb(95.7901%, 51.756287%, 19.723511%)" offset="0.484375"/><stop stop-opacity="1" stop-color="rgb(95.755005%, 51.902771%, 19.940186%)" offset="0.492188"/><stop stop-opacity="1" stop-color="rgb(95.71991%, 52.047729%, 20.155334%)" offset="0.5"/><stop stop-opacity="1" stop-color="rgb(95.684814%, 52.194214%, 20.370483%)" offset="0.507813"/><stop stop-opacity="1" stop-color="rgb(95.649719%, 52.340698%, 20.587158%)" offset="0.515625"/><stop stop-opacity="1" stop-color="rgb(95.61615%, 52.487183%, 20.802307%)" offset="0.523438"/><stop stop-opacity="1" stop-color="rgb(95.581055%, 52.633667%, 21.017456%)" offset="0.53125"/><stop stop-opacity="1" stop-color="rgb(95.545959%, 52.780151%, 21.234131%)" offset="0.539062"/><stop stop-opacity="1" stop-color="rgb(95.510864%, 52.92511%, 21.44928%)" offset="0.546875"/><stop stop-opacity="1" stop-color="rgb(95.475769%, 53.071594%, 21.665955%)" offset="0.554688"/><stop stop-opacity="1" stop-color="rgb(95.440674%, 53.218079%, 21.881104%)" offset="0.5625"/><stop stop-opacity="1" stop-color="rgb(95.405579%, 53.364563%, 22.096252%)" offset="0.570312"/><stop stop-opacity="1" stop-color="rgb(95.370483%, 53.511047%, 22.312927%)" offset="0.578125"/><stop stop-opacity="1" stop-color="rgb(95.335388%, 53.657532%, 22.528076%)" offset="0.585937"/><stop stop-opacity="1" stop-color="rgb(95.300293%, 53.80249%, 22.743225%)" offset="0.59375"/><stop stop-opacity="1" stop-color="rgb(95.265198%, 53.948975%, 22.9599%)" offset="0.601563"/><stop stop-opacity="1" stop-color="rgb(95.230103%, 54.095459%, 23.175049%)" offset="0.609375"/><stop stop-opacity="1" stop-color="rgb(95.195007%, 54.241943%, 23.391724%)" offset="0.617188"/><stop stop-opacity="1" stop-color="rgb(95.159912%, 54.388428%, 23.606873%)" offset="0.625"/><stop stop-opacity="1" stop-color="rgb(95.124817%, 54.534912%, 23.822021%)" offset="0.632813"/><stop stop-opacity="1" stop-color="rgb(95.089722%, 54.679871%, 24.038696%)" offset="0.640625"/><stop stop-opacity="1" stop-color="rgb(95.054626%, 54.826355%, 24.253845%)" offset="0.648438"/><stop stop-opacity="1" stop-color="rgb(95.019531%, 54.972839%, 24.468994%)" offset="0.65625"/><stop stop-opacity="1" stop-color="rgb(94.984436%, 55.119324%, 24.685669%)" offset="0.664062"/><stop stop-opacity="1" stop-color="rgb(94.949341%, 55.265808%, 24.900818%)" offset="0.671875"/><stop stop-opacity="1" stop-color="rgb(94.914246%, 55.412292%, 25.117493%)" offset="0.679688"/><stop stop-opacity="1" stop-color="rgb(94.87915%, 55.557251%, 25.332642%)" offset="0.6875"/><stop stop-opacity="1" stop-color="rgb(94.845581%, 55.703735%, 25.547791%)" offset="0.695313"/><stop stop-opacity="1" stop-color="rgb(94.810486%, 55.85022%, 25.764465%)" offset="0.703125"/><stop stop-opacity="1" stop-color="rgb(94.775391%, 55.996704%, 25.979614%)" offset="0.710938"/><stop stop-opacity="1" stop-color="rgb(94.740295%, 56.143188%, 26.194763%)" offset="0.71875"/><stop stop-opacity="1" stop-color="rgb(94.7052%, 56.289673%, 26.411438%)" offset="0.726563"/><stop stop-opacity="1" stop-color="rgb(94.670105%, 56.434631%, 26.626587%)" offset="0.734375"/><stop stop-opacity="1" stop-color="rgb(94.63501%, 56.581116%, 26.843262%)" offset="0.742188"/><stop stop-opacity="1" stop-color="rgb(94.599915%, 56.7276%, 27.058411%)" offset="0.75"/><stop stop-opacity="1" stop-color="rgb(94.564819%, 56.874084%, 27.27356%)" offset="0.757813"/><stop stop-opacity="1" stop-color="rgb(94.529724%, 57.020569%, 27.490234%)" offset="0.765625"/><stop stop-opacity="1" stop-color="rgb(94.494629%, 57.167053%, 27.705383%)" offset="0.773438"/><stop stop-opacity="1" stop-color="rgb(94.459534%, 57.312012%, 27.920532%)" offset="0.78125"/><stop stop-opacity="1" stop-color="rgb(94.424438%, 57.458496%, 28.137207%)" offset="0.789062"/><stop stop-opacity="1" stop-color="rgb(94.389343%, 57.60498%, 28.352356%)" offset="0.796875"/><stop stop-opacity="1" stop-color="rgb(94.354248%, 57.751465%, 28.569031%)" offset="0.804687"/><stop stop-opacity="1" stop-color="rgb(94.319153%, 57.897949%, 28.78418%)" offset="0.8125"/><stop stop-opacity="1" stop-color="rgb(94.284058%, 58.042908%, 28.999329%)" offset="0.820313"/><stop stop-opacity="1" stop-color="rgb(94.248962%, 58.189392%, 29.216003%)" offset="0.828125"/><stop stop-opacity="1" stop-color="rgb(94.213867%, 58.335876%, 29.431152%)" offset="0.835938"/><stop stop-opacity="1" stop-color="rgb(94.178772%, 58.482361%, 29.646301%)" offset="0.84375"/><stop stop-opacity="1" stop-color="rgb(94.143677%, 58.628845%, 29.862976%)" offset="0.851563"/><stop stop-opacity="1" stop-color="rgb(94.108582%, 58.77533%, 30.078125%)" offset="0.859375"/><stop stop-opacity="1" stop-color="rgb(94.075012%, 58.920288%, 30.2948%)" offset="0.867188"/><stop stop-opacity="1" stop-color="rgb(94.039917%, 59.066772%, 30.509949%)" offset="0.875"/><stop stop-opacity="1" stop-color="rgb(94.004822%, 59.213257%, 30.725098%)" offset="0.882812"/><stop stop-opacity="1" stop-color="rgb(93.969727%, 59.359741%, 30.941772%)" offset="0.890625"/><stop stop-opacity="1" stop-color="rgb(93.934631%, 59.506226%, 31.156921%)" offset="0.898438"/><stop stop-opacity="1" stop-color="rgb(93.899536%, 59.65271%, 31.37207%)" offset="0.90625"/><stop stop-opacity="1" stop-color="rgb(93.864441%, 59.797668%, 31.588745%)" offset="0.914062"/><stop stop-opacity="1" stop-color="rgb(93.829346%, 59.944153%, 31.803894%)" offset="0.921875"/><stop stop-opacity="1" stop-color="rgb(93.79425%, 60.090637%, 32.020569%)" offset="0.929687"/><stop stop-opacity="1" stop-color="rgb(93.759155%, 60.237122%, 32.235718%)" offset="0.9375"/><stop stop-opacity="1" stop-color="rgb(93.72406%, 60.383606%, 32.450867%)" offset="0.945313"/><stop stop-opacity="1" stop-color="rgb(93.688965%, 60.53009%, 32.667542%)" offset="0.953125"/><stop stop-opacity="1" stop-color="rgb(93.65387%, 60.675049%, 32.88269%)" offset="0.960938"/><stop stop-opacity="1" stop-color="rgb(93.618774%, 60.821533%, 33.097839%)" offset="0.96875"/><stop stop-opacity="1" stop-color="rgb(93.583679%, 60.968018%, 33.314514%)" offset="0.976563"/><stop stop-opacity="1" stop-color="rgb(93.548584%, 61.114502%, 33.529663%)" offset="0.984375"/><stop stop-opacity="1" stop-color="rgb(93.513489%, 61.260986%, 33.746338%)" offset="0.992188"/><stop stop-opacity="1" stop-color="rgb(93.478394%, 61.407471%, 33.961487%)" offset="1"/></linearGradient><clipPath id="a5e7034eef"><path d="M 10.53125 274.277344 L 75.699219 274.277344 L 75.699219 351.429688 L 10.53125 351.429688 Z M 10.53125 274.277344 " clip-rule="nonzero"/></clipPath><clipPath id="db2e38d52e"><path d="M 45.910156 344.457031 C 39.472656 322.117188 16.289062 333.75 11.625 312.746094 C 5.042969 283.128906 39.898438 257.710938 49.34375 288.234375 C 54.457031 304.753906 75.179688 296.8125 75.519531 322.667969 C 75.859375 348.527344 50.351562 359.847656 45.910156 344.457031 Z M 45.910156 344.457031 " clip-rule="nonzero"/></clipPath><linearGradient x1="1472.900143" gradientTransform="matrix(-0.000000000000000032, -0.52236, 0.52236, -0.000000000000000032, 180.179426, 1120.814833)" y1="-262.31" x2="1620.599" gradientUnits="userSpaceOnUse" y2="-262.31" id="d45e7efe62"><stop stop-opacity="1" stop-color="rgb(92.89856%, 46.699524%, 4.699707%)" offset="0"/><stop stop-opacity="1" stop-color="rgb(92.89856%, 46.57135%, 4.75769%)" offset="0.015625"/><stop stop-opacity="1" stop-color="rgb(92.89856%, 46.318054%, 4.876709%)" offset="0.03125"/><stop stop-opacity="1" stop-color="rgb(92.89856%, 46.063232%, 4.994202%)" offset="0.046875"/><stop stop-opacity="1" stop-color="rgb(92.89856%, 45.809937%, 5.11322%)" offset="0.0625"/><stop stop-opacity="1" stop-color="rgb(92.89856%, 45.555115%, 5.232239%)" offset="0.078125"/><stop stop-opacity="1" stop-color="rgb(92.89856%, 45.301819%, 5.349731%)" offset="0.09375"/><stop stop-opacity="1" stop-color="rgb(92.89856%, 45.046997%, 5.46875%)" offset="0.109375"/><stop stop-opacity="1" stop-color="rgb(92.89856%, 44.793701%, 5.586243%)" offset="0.125"/><stop stop-opacity="1" stop-color="rgb(92.89856%, 44.538879%, 5.705261%)" offset="0.140625"/><stop stop-opacity="1" stop-color="rgb(92.89856%, 44.284058%, 5.822754%)" offset="0.15625"/><stop stop-opacity="1" stop-color="rgb(92.89856%, 44.030762%, 5.941772%)" offset="0.171875"/><stop stop-opacity="1" stop-color="rgb(92.89856%, 43.77594%, 6.060791%)" offset="0.1875"/><stop stop-opacity="1" stop-color="rgb(92.89856%, 43.522644%, 6.178284%)" offset="0.203125"/><stop stop-opacity="1" stop-color="rgb(92.89856%, 43.267822%, 6.297302%)" offset="0.21875"/><stop stop-opacity="1" stop-color="rgb(92.89856%, 43.014526%, 6.414795%)" offset="0.234375"/><stop stop-opacity="1" stop-color="rgb(92.89856%, 42.759705%, 6.533813%)" offset="0.25"/><stop stop-opacity="1" stop-color="rgb(92.89856%, 42.506409%, 6.651306%)" offset="0.265625"/><stop stop-opacity="1" stop-color="rgb(92.89856%, 42.251587%, 6.770325%)" offset="0.28125"/><stop stop-opacity="1" stop-color="rgb(92.89856%, 41.998291%, 6.889343%)" offset="0.296875"/><stop stop-opacity="1" stop-color="rgb(92.89856%, 41.743469%, 7.006836%)" offset="0.3125"/><stop stop-opacity="1" stop-color="rgb(92.89856%, 41.490173%, 7.125854%)" offset="0.328125"/><stop stop-opacity="1" stop-color="rgb(92.89856%, 41.235352%, 7.243347%)" offset="0.34375"/><stop stop-opacity="1" stop-color="rgb(92.89856%, 40.982056%, 7.362366%)" offset="0.359375"/><stop stop-opacity="1" stop-color="rgb(92.89856%, 40.727234%, 7.481384%)" offset="0.375"/><stop stop-opacity="1" stop-color="rgb(92.89856%, 40.473938%, 7.598877%)" offset="0.390625"/><stop stop-opacity="1" stop-color="rgb(92.89856%, 40.219116%, 7.717896%)" offset="0.40625"/><stop stop-opacity="1" stop-color="rgb(92.89856%, 39.964294%, 7.835388%)" offset="0.421875"/><stop stop-opacity="1" stop-color="rgb(92.89856%, 39.710999%, 7.954407%)" offset="0.4375"/><stop stop-opacity="1" stop-color="rgb(92.89856%, 39.456177%, 8.071899%)" offset="0.453125"/><stop stop-opacity="1" stop-color="rgb(92.89856%, 39.202881%, 8.190918%)" offset="0.46875"/><stop stop-opacity="1" stop-color="rgb(92.89856%, 38.948059%, 8.309937%)" offset="0.484375"/><stop stop-opacity="1" stop-color="rgb(92.89856%, 38.694763%, 8.427429%)" offset="0.5"/><stop stop-opacity="1" stop-color="rgb(92.89856%, 38.439941%, 8.546448%)" offset="0.515625"/><stop stop-opacity="1" stop-color="rgb(92.89856%, 38.186646%, 8.66394%)" offset="0.53125"/><stop stop-opacity="1" stop-color="rgb(92.89856%, 37.931824%, 8.782959%)" offset="0.546875"/><stop stop-opacity="1" stop-color="rgb(92.89856%, 37.678528%, 8.900452%)" offset="0.5625"/><stop stop-opacity="1" stop-color="rgb(92.89856%, 37.423706%, 9.01947%)" offset="0.578125"/><stop stop-opacity="1" stop-color="rgb(92.89856%, 37.17041%, 9.138489%)" offset="0.59375"/><stop stop-opacity="1" stop-color="rgb(92.89856%, 36.915588%, 9.255981%)" offset="0.609375"/><stop stop-opacity="1" stop-color="rgb(92.89856%, 36.662292%, 9.375%)" offset="0.625"/><stop stop-opacity="1" stop-color="rgb(92.89856%, 36.407471%, 9.492493%)" offset="0.640625"/><stop stop-opacity="1" stop-color="rgb(92.89856%, 36.154175%, 9.611511%)" offset="0.65625"/><stop stop-opacity="1" stop-color="rgb(92.89856%, 35.899353%, 9.729004%)" offset="0.671875"/><stop stop-opacity="1" stop-color="rgb(92.89856%, 35.644531%, 9.848022%)" offset="0.6875"/><stop stop-opacity="1" stop-color="rgb(92.89856%, 35.391235%, 9.967041%)" offset="0.703125"/><stop stop-opacity="1" stop-color="rgb(92.89856%, 35.136414%, 10.084534%)" offset="0.71875"/><stop stop-opacity="1" stop-color="rgb(92.89856%, 34.883118%, 10.203552%)" offset="0.734375"/><stop stop-opacity="1" stop-color="rgb(92.89856%, 34.628296%, 10.321045%)" offset="0.75"/><stop stop-opacity="1" stop-color="rgb(92.89856%, 34.375%, 10.440063%)" offset="0.765625"/><stop stop-opacity="1" stop-color="rgb(92.89856%, 34.120178%, 10.559082%)" offset="0.78125"/><stop stop-opacity="1" stop-color="rgb(92.89856%, 33.866882%, 10.676575%)" offset="0.796875"/><stop stop-opacity="1" stop-color="rgb(92.89856%, 33.612061%, 10.795593%)" offset="0.8125"/><stop stop-opacity="1" stop-color="rgb(92.89856%, 33.358765%, 10.913086%)" offset="0.828125"/><stop stop-opacity="1" stop-color="rgb(92.89856%, 33.103943%, 11.032104%)" offset="0.84375"/><stop stop-opacity="1" stop-color="rgb(92.89856%, 32.850647%, 11.149597%)" offset="0.859375"/><stop stop-opacity="1" stop-color="rgb(92.89856%, 32.595825%, 11.268616%)" offset="0.875"/><stop stop-opacity="1" stop-color="rgb(92.89856%, 32.342529%, 11.387634%)" offset="0.890625"/><stop stop-opacity="1" stop-color="rgb(92.89856%, 32.087708%, 11.505127%)" offset="0.90625"/><stop stop-opacity="1" stop-color="rgb(92.89856%, 31.834412%, 11.624146%)" offset="0.921875"/><stop stop-opacity="1" stop-color="rgb(92.89856%, 31.57959%, 11.741638%)" offset="0.9375"/><stop stop-opacity="1" stop-color="rgb(92.89856%, 31.324768%, 11.860657%)" offset="0.953125"/><stop stop-opacity="1" stop-color="rgb(92.89856%, 31.071472%, 11.978149%)" offset="0.96875"/><stop stop-opacity="1" stop-color="rgb(92.89856%, 30.7724%, 12.11853%)" offset="1"/></linearGradient><clipPath id="2555fb9f2f"><path d="M 76 90.582031 L 488.976562 90.582031 L 488.976562 371 L 76 371 Z M 76 90.582031 " clip-rule="nonzero"/></clipPath><clipPath id="6c610abb97"><path d="M 76 91 L 488.976562 91 L 488.976562 115 L 76 115 Z M 76 91 " clip-rule="nonzero"/></clipPath><clipPath id="59150e065a"><path d="M 221 557 L 256 557 L 256 589.5 L 221 589.5 Z M 221 557 " clip-rule="nonzero"/></clipPath><clipPath id="f433fa7cd5"><path d="M 241 531 L 280 531 L 280 589.5 L 241 589.5 Z M 241 531 " clip-rule="nonzero"/></clipPath><clipPath id="4acfdac4ee"><path d="M 400 533 L 460 533 L 460 589.5 L 400 589.5 Z M 400 533 " clip-rule="nonzero"/></clipPath><clipPath id="dff681eb8a"><path d="M 509.746094 363.324219 L 554.648438 363.324219 L 554.648438 435.234375 L 509.746094 435.234375 Z M 509.746094 363.324219 " clip-rule="nonzero"/></clipPath><clipPath id="edad1f39e2"><path d="M 539.386719 363.429688 C 527.070312 364.925781 510.414062 391.675781 509.660156 401.164062 C 507.78125 424.726562 543.382812 447.054688 560.152344 428.148438 C 573.269531 413.351562 549.128906 410.734375 563.285156 397.71875 C 584.136719 378.539062 559.203125 361.015625 539.386719 363.429688 Z M 539.386719 363.429688 " clip-rule="nonzero"/></clipPath><linearGradient x1="-305.829475" gradientTransform="matrix(-0.000000000023823, 0.530615, 0.530615, 0.000000000023823, 768.47889, 525.602566)" y1="-429.88" x2="-170.310043" gradientUnits="userSpaceOnUse" y2="-429.88" id="16e5a986fa"><stop stop-opacity="1" stop-color="rgb(92.89856%, 46.673584%, 4.711914%)" offset="0"/><stop stop-opacity="1" stop-color="rgb(92.89856%, 46.546936%, 4.769897%)" offset="0.015625"/><stop stop-opacity="1" stop-color="rgb(92.89856%, 46.295166%, 4.885864%)" offset="0.03125"/><stop stop-opacity="1" stop-color="rgb(92.89856%, 46.044922%, 5.003357%)" offset="0.046875"/><stop stop-opacity="1" stop-color="rgb(92.89856%, 45.793152%, 5.12085%)" offset="0.0625"/><stop stop-opacity="1" stop-color="rgb(92.89856%, 45.542908%, 5.236816%)" offset="0.078125"/><stop stop-opacity="1" stop-color="rgb(92.89856%, 45.291138%, 5.354309%)" offset="0.09375"/><stop stop-opacity="1" stop-color="rgb(92.89856%, 45.039368%, 5.471802%)" offset="0.109375"/><stop stop-opacity="1" stop-color="rgb(92.89856%, 44.789124%, 5.587769%)" offset="0.125"/><stop stop-opacity="1" stop-color="rgb(92.89856%, 44.537354%, 5.705261%)" offset="0.140625"/><stop stop-opacity="1" stop-color="rgb(92.89856%, 44.287109%, 5.822754%)" offset="0.15625"/><stop stop-opacity="1" stop-color="rgb(92.89856%, 44.035339%, 5.938721%)" offset="0.171875"/><stop stop-opacity="1" stop-color="rgb(92.89856%, 43.785095%, 6.056213%)" offset="0.1875"/><stop stop-opacity="1" stop-color="rgb(92.89856%, 43.533325%, 6.173706%)" offset="0.203125"/><stop stop-opacity="1" stop-color="rgb(92.89856%, 43.281555%, 6.289673%)" offset="0.21875"/><stop stop-opacity="1" stop-color="rgb(92.89856%, 43.031311%, 6.407166%)" offset="0.234375"/><stop stop-opacity="1" stop-color="rgb(92.89856%, 42.779541%, 6.524658%)" offset="0.25"/><stop stop-opacity="1" stop-color="rgb(92.89856%, 42.529297%, 6.640625%)" offset="0.265625"/><stop stop-opacity="1" stop-color="rgb(92.89856%, 42.277527%, 6.758118%)" offset="0.28125"/><stop stop-opacity="1" stop-color="rgb(92.89856%, 42.025757%, 6.87561%)" offset="0.296875"/><stop stop-opacity="1" stop-color="rgb(92.89856%, 41.775513%, 6.993103%)" offset="0.3125"/><stop stop-opacity="1" stop-color="rgb(92.89856%, 41.523743%, 7.10907%)" offset="0.328125"/><stop stop-opacity="1" stop-color="rgb(92.89856%, 41.273499%, 7.226562%)" offset="0.34375"/><stop stop-opacity="1" stop-color="rgb(92.89856%, 41.021729%, 7.344055%)" offset="0.359375"/><stop stop-opacity="1" stop-color="rgb(92.89856%, 40.769958%, 7.460022%)" offset="0.375"/><stop stop-opacity="1" stop-color="rgb(92.89856%, 40.519714%, 7.577515%)" offset="0.390625"/><stop stop-opacity="1" stop-color="rgb(92.89856%, 40.267944%, 7.695007%)" offset="0.40625"/><stop stop-opacity="1" stop-color="rgb(92.89856%, 40.0177%, 7.810974%)" offset="0.421875"/><stop stop-opacity="1" stop-color="rgb(92.89856%, 39.76593%, 7.928467%)" offset="0.4375"/><stop stop-opacity="1" stop-color="rgb(92.89856%, 39.51416%, 8.045959%)" offset="0.453125"/><stop stop-opacity="1" stop-color="rgb(92.89856%, 39.263916%, 8.161926%)" offset="0.46875"/><stop stop-opacity="1" stop-color="rgb(92.89856%, 39.012146%, 8.279419%)" offset="0.484375"/><stop stop-opacity="1" stop-color="rgb(92.89856%, 38.761902%, 8.396912%)" offset="0.5"/><stop stop-opacity="1" stop-color="rgb(92.89856%, 38.510132%, 8.512878%)" offset="0.515625"/><stop stop-opacity="1" stop-color="rgb(92.89856%, 38.258362%, 8.630371%)" offset="0.53125"/><stop stop-opacity="1" stop-color="rgb(92.89856%, 38.008118%, 8.747864%)" offset="0.546875"/><stop stop-opacity="1" stop-color="rgb(92.89856%, 37.756348%, 8.863831%)" offset="0.5625"/><stop stop-opacity="1" stop-color="rgb(92.89856%, 37.506104%, 8.981323%)" offset="0.578125"/><stop stop-opacity="1" stop-color="rgb(92.89856%, 37.254333%, 9.098816%)" offset="0.59375"/><stop stop-opacity="1" stop-color="rgb(92.89856%, 37.002563%, 9.214783%)" offset="0.609375"/><stop stop-opacity="1" stop-color="rgb(92.89856%, 36.752319%, 9.332275%)" offset="0.625"/><stop stop-opacity="1" stop-color="rgb(92.89856%, 36.500549%, 9.449768%)" offset="0.640625"/><stop stop-opacity="1" stop-color="rgb(92.89856%, 36.250305%, 9.565735%)" offset="0.65625"/><stop stop-opacity="1" stop-color="rgb(92.89856%, 35.998535%, 9.683228%)" offset="0.671875"/><stop stop-opacity="1" stop-color="rgb(92.89856%, 35.746765%, 9.80072%)" offset="0.6875"/><stop stop-opacity="1" stop-color="rgb(92.89856%, 35.496521%, 9.916687%)" offset="0.703125"/><stop stop-opacity="1" stop-color="rgb(92.89856%, 35.244751%, 10.03418%)" offset="0.71875"/><stop stop-opacity="1" stop-color="rgb(92.89856%, 34.994507%, 10.151672%)" offset="0.734375"/><stop stop-opacity="1" stop-color="rgb(92.89856%, 34.742737%, 10.267639%)" offset="0.75"/><stop stop-opacity="1" stop-color="rgb(92.89856%, 34.490967%, 10.385132%)" offset="0.765625"/><stop stop-opacity="1" stop-color="rgb(92.89856%, 34.240723%, 10.502625%)" offset="0.78125"/><stop stop-opacity="1" stop-color="rgb(92.89856%, 33.988953%, 10.618591%)" offset="0.796875"/><stop stop-opacity="1" stop-color="rgb(92.89856%, 33.738708%, 10.736084%)" offset="0.8125"/><stop stop-opacity="1" stop-color="rgb(92.89856%, 33.486938%, 10.853577%)" offset="0.828125"/><stop stop-opacity="1" stop-color="rgb(92.89856%, 33.235168%, 10.969543%)" offset="0.84375"/><stop stop-opacity="1" stop-color="rgb(92.89856%, 32.984924%, 11.087036%)" offset="0.859375"/><stop stop-opacity="1" stop-color="rgb(92.89856%, 32.733154%, 11.204529%)" offset="0.875"/><stop stop-opacity="1" stop-color="rgb(92.89856%, 32.48291%, 11.320496%)" offset="0.890625"/><stop stop-opacity="1" stop-color="rgb(92.89856%, 32.23114%, 11.437988%)" offset="0.90625"/><stop stop-opacity="1" stop-color="rgb(92.89856%, 31.97937%, 11.555481%)" offset="0.921875"/><stop stop-opacity="1" stop-color="rgb(92.89856%, 31.729126%, 11.672974%)" offset="0.9375"/><stop stop-opacity="1" stop-color="rgb(92.89856%, 31.477356%, 11.78894%)" offset="0.953125"/><stop stop-opacity="1" stop-color="rgb(92.89856%, 31.227112%, 11.906433%)" offset="0.96875"/><stop stop-opacity="1" stop-color="rgb(92.89856%, 30.975342%, 12.023926%)" offset="0.984375"/><stop stop-opacity="1" stop-color="rgb(92.89856%, 30.725098%, 12.139893%)" offset="1"/></linearGradient><clipPath id="9f54f1d66d"><path d="M 0.351562 0 L 76 0 L 76 76 L 0.351562 76 Z M 0.351562 0 " clip-rule="nonzero"/></clipPath><clipPath id="0c0348d743"><path d="M 35.148438 90.570312 L -32.484375 46.183594 L 19.714844 -33.347656 L 87.347656 11.042969 Z M 35.148438 90.570312 " clip-rule="nonzero"/></clipPath><clipPath id="4e57364ec8"><path d="M 35.148438 90.570312 L -32.484375 46.183594 L 19.714844 -33.347656 L 87.347656 11.042969 Z M 35.148438 90.570312 " clip-rule="nonzero"/></clipPath><clipPath id="8a8a102bdd"><path d="M 52.042969 -11.414062 C 37.40625 -18.664062 -0.25 -1.257812 -7.933594 8.640625 C -27.023438 33.21875 -3.972656 83.511719 28.144531 74.820312 C 53.273438 68.007812 28.589844 47.6875 53.574219 43.589844 C 90.382812 37.542969 75.597656 0.246094 52.042969 -11.414062 Z M 52.042969 -11.414062 " clip-rule="nonzero"/></clipPath><linearGradient x1="-319.70155" gradientTransform="matrix(-0.383319, 0.584017, 0.584017, 0.383319, 187.036672, 332.576403)" y1="-429.88" x2="-151.42682" gradientUnits="userSpaceOnUse" y2="-429.88" id="1babe2f330"><stop stop-opacity="1" stop-color="rgb(92.89856%, 46.699524%, 4.699707%)" offset="0"/><stop stop-opacity="1" stop-color="rgb(92.89856%, 46.699524%, 4.699707%)" offset="0.0625"/><stop stop-opacity="1" stop-color="rgb(92.89856%, 46.572876%, 4.75769%)" offset="0.09375"/><stop stop-opacity="1" stop-color="rgb(92.89856%, 46.290588%, 4.888916%)" offset="0.109375"/><stop stop-opacity="1" stop-color="rgb(92.89856%, 45.979309%, 5.033875%)" offset="0.125"/><stop stop-opacity="1" stop-color="rgb(92.89856%, 45.66803%, 5.178833%)" offset="0.140625"/><stop stop-opacity="1" stop-color="rgb(92.89856%, 45.355225%, 5.323792%)" offset="0.15625"/><stop stop-opacity="1" stop-color="rgb(92.89856%, 45.043945%, 5.470276%)" offset="0.171875"/><stop stop-opacity="1" stop-color="rgb(92.89856%, 44.73114%, 5.615234%)" offset="0.1875"/><stop stop-opacity="1" stop-color="rgb(92.89856%, 44.419861%, 5.760193%)" offset="0.203125"/><stop stop-opacity="1" stop-color="rgb(92.89856%, 44.108582%, 5.905151%)" offset="0.21875"/><stop stop-opacity="1" stop-color="rgb(92.89856%, 43.795776%, 6.05011%)" offset="0.234375"/><stop stop-opacity="1" stop-color="rgb(92.89856%, 43.484497%, 6.196594%)" offset="0.25"/><stop stop-opacity="1" stop-color="rgb(92.89856%, 43.173218%, 6.341553%)" offset="0.265625"/><stop stop-opacity="1" stop-color="rgb(92.89856%, 42.860413%, 6.486511%)" offset="0.28125"/><stop stop-opacity="1" stop-color="rgb(92.89856%, 42.549133%, 6.63147%)" offset="0.296875"/><stop stop-opacity="1" stop-color="rgb(92.89856%, 42.236328%, 6.777954%)" offset="0.3125"/><stop stop-opacity="1" stop-color="rgb(92.89856%, 41.925049%, 6.922913%)" offset="0.328125"/><stop stop-opacity="1" stop-color="rgb(92.89856%, 41.61377%, 7.067871%)" offset="0.34375"/><stop stop-opacity="1" stop-color="rgb(92.89856%, 41.300964%, 7.21283%)" offset="0.359375"/><stop stop-opacity="1" stop-color="rgb(92.89856%, 40.989685%, 7.357788%)" offset="0.375"/><stop stop-opacity="1" stop-color="rgb(92.89856%, 40.67688%, 7.504272%)" offset="0.390625"/><stop stop-opacity="1" stop-color="rgb(92.89856%, 40.365601%, 7.649231%)" offset="0.40625"/><stop stop-opacity="1" stop-color="rgb(92.89856%, 40.054321%, 7.794189%)" offset="0.421875"/><stop stop-opacity="1" stop-color="rgb(92.89856%, 39.741516%, 7.939148%)" offset="0.4375"/><stop stop-opacity="1" stop-color="rgb(92.89856%, 39.430237%, 8.084106%)" offset="0.453125"/><stop stop-opacity="1" stop-color="rgb(92.89856%, 39.118958%, 8.230591%)" offset="0.46875"/><stop stop-opacity="1" stop-color="rgb(92.89856%, 38.806152%, 8.375549%)" offset="0.484375"/><stop stop-opacity="1" stop-color="rgb(92.89856%, 38.494873%, 8.520508%)" offset="0.5"/><stop stop-opacity="1" stop-color="rgb(92.89856%, 38.182068%, 8.665466%)" offset="0.515625"/><stop stop-opacity="1" stop-color="rgb(92.89856%, 37.870789%, 8.810425%)" offset="0.53125"/><stop stop-opacity="1" stop-color="rgb(92.89856%, 37.559509%, 8.956909%)" offset="0.546875"/><stop stop-opacity="1" stop-color="rgb(92.89856%, 37.246704%, 9.101868%)" offset="0.5625"/><stop stop-opacity="1" stop-color="rgb(92.89856%, 36.935425%, 9.246826%)" offset="0.578125"/><stop stop-opacity="1" stop-color="rgb(92.89856%, 36.624146%, 9.391785%)" offset="0.59375"/><stop stop-opacity="1" stop-color="rgb(92.89856%, 36.31134%, 9.536743%)" offset="0.609375"/><stop stop-opacity="1" stop-color="rgb(92.89856%, 36.000061%, 9.683228%)" offset="0.625"/><stop stop-opacity="1" stop-color="rgb(92.89856%, 35.687256%, 9.828186%)" offset="0.640625"/><stop stop-opacity="1" stop-color="rgb(92.89856%, 35.375977%, 9.973145%)" offset="0.65625"/><stop stop-opacity="1" stop-color="rgb(92.89856%, 35.064697%, 10.118103%)" offset="0.671875"/><stop stop-opacity="1" stop-color="rgb(92.89856%, 34.751892%, 10.264587%)" offset="0.6875"/><stop stop-opacity="1" stop-color="rgb(92.89856%, 34.440613%, 10.409546%)" offset="0.703125"/><stop stop-opacity="1" stop-color="rgb(92.89856%, 34.129333%, 10.554504%)" offset="0.71875"/><stop stop-opacity="1" stop-color="rgb(92.89856%, 33.816528%, 10.699463%)" offset="0.734375"/><stop stop-opacity="1" stop-color="rgb(92.89856%, 33.505249%, 10.844421%)" offset="0.75"/><stop stop-opacity="1" stop-color="rgb(92.89856%, 33.192444%, 10.990906%)" offset="0.765625"/><stop stop-opacity="1" stop-color="rgb(92.89856%, 32.881165%, 11.135864%)" offset="0.78125"/><stop stop-opacity="1" stop-color="rgb(92.89856%, 32.569885%, 11.280823%)" offset="0.796875"/><stop stop-opacity="1" stop-color="rgb(92.89856%, 32.25708%, 11.425781%)" offset="0.8125"/><stop stop-opacity="1" stop-color="rgb(92.89856%, 31.945801%, 11.57074%)" offset="0.828125"/><stop stop-opacity="1" stop-color="rgb(92.89856%, 31.632996%, 11.717224%)" offset="0.84375"/><stop stop-opacity="1" stop-color="rgb(92.89856%, 31.321716%, 11.862183%)" offset="0.859375"/><stop stop-opacity="1" stop-color="rgb(92.89856%, 31.010437%, 12.007141%)" offset="0.875"/><stop stop-opacity="1" stop-color="rgb(92.89856%, 30.726624%, 12.139893%)" offset="1"/></linearGradient><clipPath id="5a538f82bc"><path d="M 87 21 L 139 21 L 139 71 L 87 71 Z M 87 21 " clip-rule="nonzero"/></clipPath><clipPath id="bad5db0ac3"><path d="M 81.066406 54.566406 L 99.507812 13.582031 L 147.324219 35.101562 L 128.878906 76.085938 Z M 81.066406 54.566406 " clip-rule="nonzero"/></clipPath><clipPath id="18acb60fe0"><path d="M 81.066406 54.566406 L 99.507812 13.582031 L 147.324219 35.101562 L 128.878906 76.085938 Z M 81.066406 54.566406 " clip-rule="nonzero"/></clipPath><clipPath id="7926c03581"><path d="M 137.921875 54.917969 C 140.589844 46.339844 127.878906 27.394531 121.839844 24.078125 C 106.835938 15.835938 81.515625 32.707031 89.015625 49.398438 C 94.890625 62.457031 103.789062 47.292969 108.179688 60.507812 C 114.648438 79.980469 133.625 68.722656 137.921875 54.917969 Z M 137.921875 54.917969 " clip-rule="nonzero"/></clipPath><linearGradient x1="-334.579626" gradientTransform="matrix(-0.350365, -0.157672, -0.157672, 0.350365, -37.237077, 157.99843)" y1="-429.88" x2="-130.009501" gradientUnits="userSpaceOnUse" y2="-429.88" id="cff41a41dc"><stop stop-opacity="1" stop-color="rgb(92.89856%, 46.699524%, 4.699707%)" offset="0"/><stop stop-opacity="1" stop-color="rgb(92.89856%, 46.699524%, 4.699707%)" offset="0.125"/><stop stop-opacity="1" stop-color="rgb(92.89856%, 46.684265%, 4.705811%)" offset="0.140625"/><stop stop-opacity="1" stop-color="rgb(92.89856%, 46.481323%, 4.800415%)" offset="0.15625"/><stop stop-opacity="1" stop-color="rgb(92.89856%, 46.101379%, 4.977417%)" offset="0.171875"/><stop stop-opacity="1" stop-color="rgb(92.89856%, 45.722961%, 5.154419%)" offset="0.1875"/><stop stop-opacity="1" stop-color="rgb(92.89856%, 45.343018%, 5.329895%)" offset="0.203125"/><stop stop-opacity="1" stop-color="rgb(92.89856%, 44.9646%, 5.506897%)" offset="0.21875"/><stop stop-opacity="1" stop-color="rgb(92.89856%, 44.586182%, 5.683899%)" offset="0.234375"/><stop stop-opacity="1" stop-color="rgb(92.89856%, 44.206238%, 5.860901%)" offset="0.25"/><stop stop-opacity="1" stop-color="rgb(92.89856%, 43.82782%, 6.036377%)" offset="0.265625"/><stop stop-opacity="1" stop-color="rgb(92.89856%, 43.447876%, 6.213379%)" offset="0.28125"/><stop stop-opacity="1" stop-color="rgb(92.89856%, 43.069458%, 6.390381%)" offset="0.296875"/><stop stop-opacity="1" stop-color="rgb(92.89856%, 42.689514%, 6.565857%)" offset="0.3125"/><stop stop-opacity="1" stop-color="rgb(92.89856%, 42.311096%, 6.742859%)" offset="0.328125"/><stop stop-opacity="1" stop-color="rgb(92.89856%, 41.931152%, 6.919861%)" offset="0.34375"/><stop stop-opacity="1" stop-color="rgb(92.89856%, 41.552734%, 7.096863%)" offset="0.359375"/><stop stop-opacity="1" stop-color="rgb(92.89856%, 41.172791%, 7.272339%)" offset="0.375"/><stop stop-opacity="1" stop-color="rgb(92.89856%, 40.794373%, 7.449341%)" offset="0.390625"/><stop stop-opacity="1" stop-color="rgb(92.89856%, 40.414429%, 7.626343%)" offset="0.40625"/><stop stop-opacity="1" stop-color="rgb(92.89856%, 40.036011%, 7.803345%)" offset="0.421875"/><stop stop-opacity="1" stop-color="rgb(92.89856%, 39.657593%, 7.978821%)" offset="0.4375"/><stop stop-opacity="1" stop-color="rgb(92.89856%, 39.277649%, 8.155823%)" offset="0.453125"/><stop stop-opacity="1" stop-color="rgb(92.89856%, 38.899231%, 8.332825%)" offset="0.46875"/><stop stop-opacity="1" stop-color="rgb(92.89856%, 38.519287%, 8.509827%)" offset="0.484375"/><stop stop-opacity="1" stop-color="rgb(92.89856%, 38.140869%, 8.685303%)" offset="0.5"/><stop stop-opacity="1" stop-color="rgb(92.89856%, 37.760925%, 8.862305%)" offset="0.515625"/><stop stop-opacity="1" stop-color="rgb(92.89856%, 37.382507%, 9.039307%)" offset="0.53125"/><stop stop-opacity="1" stop-color="rgb(92.89856%, 37.002563%, 9.216309%)" offset="0.546875"/><stop stop-opacity="1" stop-color="rgb(92.89856%, 36.624146%, 9.391785%)" offset="0.5625"/><stop stop-opacity="1" stop-color="rgb(92.89856%, 36.244202%, 9.568787%)" offset="0.578125"/><stop stop-opacity="1" stop-color="rgb(92.89856%, 35.865784%, 9.745789%)" offset="0.59375"/><stop stop-opacity="1" stop-color="rgb(92.89856%, 35.48584%, 9.922791%)" offset="0.609375"/><stop stop-opacity="1" stop-color="rgb(92.89856%, 35.107422%, 10.098267%)" offset="0.625"/><stop stop-opacity="1" stop-color="rgb(92.89856%, 34.729004%, 10.275269%)" offset="0.640625"/><stop stop-opacity="1" stop-color="rgb(92.89856%, 34.34906%, 10.452271%)" offset="0.65625"/><stop stop-opacity="1" stop-color="rgb(92.89856%, 33.970642%, 10.629272%)" offset="0.671875"/><stop stop-opacity="1" stop-color="rgb(92.89856%, 33.590698%, 10.804749%)" offset="0.6875"/><stop stop-opacity="1" stop-color="rgb(92.89856%, 33.21228%, 10.98175%)" offset="0.703125"/><stop stop-opacity="1" stop-color="rgb(92.89856%, 32.832336%, 11.158752%)" offset="0.71875"/><stop stop-opacity="1" stop-color="rgb(92.89856%, 32.453918%, 11.335754%)" offset="0.734375"/><stop stop-opacity="1" stop-color="rgb(92.89856%, 32.073975%, 11.51123%)" offset="0.75"/><stop stop-opacity="1" stop-color="rgb(92.89856%, 31.695557%, 11.688232%)" offset="0.765625"/><stop stop-opacity="1" stop-color="rgb(92.89856%, 31.315613%, 11.865234%)" offset="0.78125"/><stop stop-opacity="1" stop-color="rgb(92.89856%, 30.937195%, 12.042236%)" offset="0.796875"/><stop stop-opacity="1" stop-color="rgb(92.89856%, 30.673218%, 12.164307%)" offset="0.8125"/><stop stop-opacity="1" stop-color="rgb(92.89856%, 30.599976%, 12.199402%)" offset="0.875"/><stop stop-opacity="1" stop-color="rgb(92.89856%, 30.599976%, 12.199402%)" offset="1"/></linearGradient><clipPath id="0a188054ac"><path d="M 315 15 L 388 15 L 388 79 L 315 79 Z M 315 15 " clip-rule="nonzero"/></clipPath><clipPath id="fc1aad3021"><path d="M 313.414062 75.367188 L 317.242188 14.0625 L 389.011719 18.546875 L 385.183594 79.851562 Z M 313.414062 75.367188 " clip-rule="nonzero"/></clipPath><clipPath id="a73f443a54"><path d="M 313.414062 75.367188 L 317.242188 14.0625 L 389.011719 18.546875 L 385.183594 79.851562 Z M 313.414062 75.367188 " clip-rule="nonzero"/></clipPath><clipPath id="cb5283af41"><path d="M 387.058594 48.121094 C 386.332031 35.738281 360.675781 17.445312 351.253906 16.101562 C 327.851562 12.757812 303.347656 46.898438 321.171875 64.816406 C 335.125 78.828125 339.238281 54.898438 351.347656 69.835938 C 369.191406 91.847656 388.234375 68.054688 387.058594 48.121094 Z M 387.058594 48.121094 " clip-rule="nonzero"/></clipPath><linearGradient x1="-311.566041" gradientTransform="matrix(-0.529583, -0.0330803, -0.0330803, 0.529583, 210.920094, 266.659584)" y1="-429.88" x2="-163.107446" gradientUnits="userSpaceOnUse" y2="-429.88" id="6e67df4e38"><stop stop-opacity="1" stop-color="rgb(92.89856%, 46.699524%, 4.699707%)" offset="0"/><stop stop-opacity="1" stop-color="rgb(92.89856%, 46.699524%, 4.699707%)" offset="0.03125"/><stop stop-opacity="1" stop-color="rgb(92.89856%, 46.614075%, 4.73938%)" offset="0.046875"/><stop stop-opacity="1" stop-color="rgb(92.89856%, 46.389771%, 4.84314%)" offset="0.0625"/><stop stop-opacity="1" stop-color="rgb(92.89856%, 46.115112%, 4.971313%)" offset="0.078125"/><stop stop-opacity="1" stop-color="rgb(92.89856%, 45.840454%, 5.099487%)" offset="0.09375"/><stop stop-opacity="1" stop-color="rgb(92.89856%, 45.56427%, 5.227661%)" offset="0.109375"/><stop stop-opacity="1" stop-color="rgb(92.89856%, 45.289612%, 5.355835%)" offset="0.125"/><stop stop-opacity="1" stop-color="rgb(92.89856%, 45.014954%, 5.484009%)" offset="0.140625"/><stop stop-opacity="1" stop-color="rgb(92.89856%, 44.73877%, 5.612183%)" offset="0.15625"/><stop stop-opacity="1" stop-color="rgb(92.89856%, 44.464111%, 5.740356%)" offset="0.171875"/><stop stop-opacity="1" stop-color="rgb(92.89856%, 44.189453%, 5.86853%)" offset="0.1875"/><stop stop-opacity="1" stop-color="rgb(92.89856%, 43.914795%, 5.996704%)" offset="0.203125"/><stop stop-opacity="1" stop-color="rgb(92.89856%, 43.638611%, 6.124878%)" offset="0.21875"/><stop stop-opacity="1" stop-color="rgb(92.89856%, 43.363953%, 6.253052%)" offset="0.234375"/><stop stop-opacity="1" stop-color="rgb(92.89856%, 43.089294%, 6.381226%)" offset="0.25"/><stop stop-opacity="1" stop-color="rgb(92.89856%, 42.81311%, 6.509399%)" offset="0.265625"/><stop stop-opacity="1" stop-color="rgb(92.89856%, 42.538452%, 6.637573%)" offset="0.28125"/><stop stop-opacity="1" stop-color="rgb(92.89856%, 42.263794%, 6.765747%)" offset="0.296875"/><stop stop-opacity="1" stop-color="rgb(92.89856%, 41.98761%, 6.893921%)" offset="0.3125"/><stop stop-opacity="1" stop-color="rgb(92.89856%, 41.712952%, 7.022095%)" offset="0.328125"/><stop stop-opacity="1" stop-color="rgb(92.89856%, 41.438293%, 7.150269%)" offset="0.34375"/><stop stop-opacity="1" stop-color="rgb(92.89856%, 41.162109%, 7.278442%)" offset="0.359375"/><stop stop-opacity="1" stop-color="rgb(92.89856%, 40.887451%, 7.406616%)" offset="0.375"/><stop stop-opacity="1" stop-color="rgb(92.89856%, 40.612793%, 7.53479%)" offset="0.390625"/><stop stop-opacity="1" stop-color="rgb(92.89856%, 40.336609%, 7.662964%)" offset="0.40625"/><stop stop-opacity="1" stop-color="rgb(92.89856%, 40.061951%, 7.791138%)" offset="0.421875"/><stop stop-opacity="1" stop-color="rgb(92.89856%, 39.787292%, 7.919312%)" offset="0.4375"/><stop stop-opacity="1" stop-color="rgb(92.89856%, 39.512634%, 8.047485%)" offset="0.453125"/><stop stop-opacity="1" stop-color="rgb(92.89856%, 39.23645%, 8.175659%)" offset="0.46875"/><stop stop-opacity="1" stop-color="rgb(92.89856%, 38.961792%, 8.303833%)" offset="0.484375"/><stop stop-opacity="1" stop-color="rgb(92.89856%, 38.687134%, 8.432007%)" offset="0.5"/><stop stop-opacity="1" stop-color="rgb(92.89856%, 38.41095%, 8.560181%)" offset="0.515625"/><stop stop-opacity="1" stop-color="rgb(92.89856%, 38.136292%, 8.688354%)" offset="0.53125"/><stop stop-opacity="1" stop-color="rgb(92.89856%, 37.861633%, 8.816528%)" offset="0.546875"/><stop stop-opacity="1" stop-color="rgb(92.89856%, 37.585449%, 8.944702%)" offset="0.5625"/><stop stop-opacity="1" stop-color="rgb(92.89856%, 37.310791%, 9.072876%)" offset="0.578125"/><stop stop-opacity="1" stop-color="rgb(92.89856%, 37.036133%, 9.20105%)" offset="0.59375"/><stop stop-opacity="1" stop-color="rgb(92.89856%, 36.759949%, 9.329224%)" offset="0.609375"/><stop stop-opacity="1" stop-color="rgb(92.89856%, 36.485291%, 9.457397%)" offset="0.625"/><stop stop-opacity="1" stop-color="rgb(92.89856%, 36.210632%, 9.585571%)" offset="0.640625"/><stop stop-opacity="1" stop-color="rgb(92.89856%, 35.935974%, 9.713745%)" offset="0.65625"/><stop stop-opacity="1" stop-color="rgb(92.89856%, 35.65979%, 9.841919%)" offset="0.671875"/><stop stop-opacity="1" stop-color="rgb(92.89856%, 35.385132%, 9.970093%)" offset="0.6875"/><stop stop-opacity="1" stop-color="rgb(92.89856%, 35.110474%, 10.098267%)" offset="0.703125"/><stop stop-opacity="1" stop-color="rgb(92.89856%, 34.83429%, 10.22644%)" offset="0.71875"/><stop stop-opacity="1" stop-color="rgb(92.89856%, 34.559631%, 10.354614%)" offset="0.734375"/><stop stop-opacity="1" stop-color="rgb(92.89856%, 34.284973%, 10.482788%)" offset="0.75"/><stop stop-opacity="1" stop-color="rgb(92.89856%, 34.008789%, 10.610962%)" offset="0.765625"/><stop stop-opacity="1" stop-color="rgb(92.89856%, 33.734131%, 10.739136%)" offset="0.78125"/><stop stop-opacity="1" stop-color="rgb(92.89856%, 33.459473%, 10.86731%)" offset="0.796875"/><stop stop-opacity="1" stop-color="rgb(92.89856%, 33.183289%, 10.995483%)" offset="0.8125"/><stop stop-opacity="1" stop-color="rgb(92.89856%, 32.90863%, 11.123657%)" offset="0.828125"/><stop stop-opacity="1" stop-color="rgb(92.89856%, 32.633972%, 11.251831%)" offset="0.84375"/><stop stop-opacity="1" stop-color="rgb(92.89856%, 32.357788%, 11.380005%)" offset="0.859375"/><stop stop-opacity="1" stop-color="rgb(92.89856%, 32.08313%, 11.508179%)" offset="0.875"/><stop stop-opacity="1" stop-color="rgb(92.89856%, 31.808472%, 11.636353%)" offset="0.890625"/><stop stop-opacity="1" stop-color="rgb(92.89856%, 31.533813%, 11.764526%)" offset="0.90625"/><stop stop-opacity="1" stop-color="rgb(92.89856%, 31.257629%, 11.8927%)" offset="0.921875"/><stop stop-opacity="1" stop-color="rgb(92.89856%, 30.982971%, 12.020874%)" offset="0.9375"/><stop stop-opacity="1" stop-color="rgb(92.89856%, 30.722046%, 12.141418%)" offset="1"/></linearGradient></defs><g clip-path="url(#f693f00b58)"><path fill="#ffffff" d="M 0.351562 0 L 554.648438 0 L 554.648438 589.5 L 0.351562 589.5 Z M 0.351562 0 " fill-opacity="1" fill-rule="nonzero"/><path fill="#fee9d6" d="M 0.351562 0 L 554.648438 0 L 554.648438 589.5 L 0.351562 589.5 Z M 0.351562 0 " fill-opacity="1" fill-rule="nonzero"/></g><g clip-path="url(#316d6ab2a5)"><g clip-path="url(#7b3d1c2143)"><g clip-path="url(#6fd8f513ba)"><g clip-path="url(#10876f7f6f)"><path fill="url(#86fa889dc1)" d="M 642.777344 103.570312 L 505.117188 220.707031 L 381.125 74.988281 L 518.785156 -42.148438 Z M 642.777344 103.570312 " fill-rule="nonzero"/></g></g></g></g><g clip-path="url(#a5e7034eef)"><g clip-path="url(#db2e38d52e)"><path fill="url(#d45e7efe62)" d="M 10.53125 351.429688 L 75.699219 351.429688 L 75.699219 274.277344 L 10.53125 274.277344 Z M 10.53125 351.429688 " fill-rule="nonzero"/></g></g><g clip-path="url(#2555fb9f2f)"><path fill="#eca766" d="M 76.835938 102.394531 C 76.835938 95.894531 82.105469 90.628906 88.605469 90.628906 L 476.949219 90.628906 C 483.449219 90.628906 488.71875 95.894531 488.71875 102.394531 L 488.71875 358.9375 C 488.71875 365.4375 483.449219 370.707031 476.949219 370.707031 L 88.605469 370.707031 C 82.105469 370.707031 76.835938 365.4375 76.835938 358.9375 Z M 76.835938 102.394531 " fill-opacity="1" fill-rule="nonzero"/></g><g clip-path="url(#6c610abb97)"><path fill="#ed4e1f" d="M 76.660156 102.933594 C 76.660156 96.433594 81.929688 91.164062 88.429688 91.164062 L 477.160156 91.164062 C 483.660156 91.164062 488.929688 96.433594 488.929688 102.933594 L 488.929688 114.253906 L 76.660156 114.253906 Z M 76.660156 102.933594 " fill-opacity="1" fill-rule="nonzero"/></g><path fill="#eca766" d="M 103.902344 103.074219 C 103.902344 105.824219 101.796875 108.054688 99.195312 108.054688 C 96.597656 108.054688 94.488281 105.824219 94.488281 103.074219 C 94.488281 100.324219 96.597656 98.097656 99.195312 98.097656 C 101.796875 98.097656 103.902344 100.324219 103.902344 103.074219 Z M 103.902344 103.074219 " fill-opacity="1" fill-rule="nonzero"/><path fill="#eca766" d="M 119.203125 103.074219 C 119.203125 105.824219 117.09375 108.054688 114.496094 108.054688 C 111.894531 108.054688 109.789062 105.824219 109.789062 103.074219 C 109.789062 100.324219 111.894531 98.097656 114.496094 98.097656 C 117.09375 98.097656 119.203125 100.324219 119.203125 103.074219 Z M 119.203125 103.074219 " fill-opacity="1" fill-rule="nonzero"/><path fill="#eca766" d="M 134.5 103.074219 C 134.5 105.824219 132.394531 108.054688 129.792969 108.054688 C 127.195312 108.054688 125.085938 105.824219 125.085938 103.074219 C 125.085938 100.324219 127.195312 98.097656 129.792969 98.097656 C 132.394531 98.097656 134.5 100.324219 134.5 103.074219 Z M 134.5 103.074219 " fill-opacity="1" fill-rule="nonzero"/><path fill="#ffffff" d="M 231 183.59375 C 231 206.992188 212.03125 225.960938 188.632812 225.960938 C 165.238281 225.960938 146.269531 206.992188 146.269531 183.59375 C 146.269531 160.199219 165.238281 141.230469 188.632812 141.230469 C 212.03125 141.230469 231 160.199219 231 183.59375 Z M 231 183.59375 " fill-opacity="1" fill-rule="nonzero"/><path fill="#ffffff" d="M 121.554688 262.441406 C 121.554688 257.242188 125.769531 253.027344 130.96875 253.027344 L 246.296875 253.027344 C 251.496094 253.027344 255.710938 257.242188 255.710938 262.441406 C 255.710938 267.640625 251.496094 271.855469 246.296875 271.855469 L 130.96875 271.855469 C 125.769531 271.855469 121.554688 267.640625 121.554688 262.441406 Z M 121.554688 262.441406 " fill-opacity="1" fill-rule="nonzero"/><path fill="#ffffff" d="M 121.554688 295.390625 C 121.554688 290.191406 125.769531 285.976562 130.96875 285.976562 L 246.296875 285.976562 C 251.496094 285.976562 255.710938 290.191406 255.710938 295.390625 C 255.710938 300.589844 251.496094 304.804688 246.296875 304.804688 L 130.96875 304.804688 C 125.769531 304.804688 121.554688 300.589844 121.554688 295.390625 Z M 121.554688 295.390625 " fill-opacity="1" fill-rule="nonzero"/><path fill="#000000" d="M 156.859375 334.816406 C 156.859375 326.039062 163.972656 318.925781 172.746094 318.925781 L 203.34375 318.925781 C 212.117188 318.925781 219.230469 326.039062 219.230469 334.816406 C 219.230469 343.589844 212.117188 350.703125 203.34375 350.703125 L 172.746094 350.703125 C 163.972656 350.703125 156.859375 343.589844 156.859375 334.816406 Z M 156.859375 334.816406 " fill-opacity="1" fill-rule="nonzero"/><path fill="#eca766" d="M 183.691406 331.035156 C 184.152344 330.578125 184.898438 330.582031 185.355469 331.046875 L 189.121094 334.855469 L 185.34375 338.59375 C 184.882812 339.050781 184.136719 339.046875 183.679688 338.582031 C 183.222656 338.121094 183.230469 337.378906 183.691406 336.917969 L 184.597656 336.023438 L 174.511719 336.023438 C 173.863281 336.023438 173.335938 335.496094 173.335938 334.847656 C 173.335938 334.195312 173.863281 333.667969 174.511719 333.667969 L 184.640625 333.667969 L 183.679688 332.699219 C 183.222656 332.238281 183.230469 331.492188 183.691406 331.035156 Z M 183.691406 331.035156 " fill-opacity="1" fill-rule="evenodd"/><path fill="#eca766" d="M 179.21875 324.8125 L 199.226562 324.8125 L 199.226562 344.816406 L 179.21875 344.816406 L 179.21875 339.226562 C 179.21875 338.578125 179.746094 338.050781 180.394531 338.050781 C 181.046875 338.050781 181.574219 338.578125 181.574219 339.226562 L 181.574219 342.464844 L 196.871094 342.464844 L 196.871094 327.164062 L 181.574219 327.164062 L 181.574219 330.402344 C 181.574219 331.050781 181.046875 331.578125 180.394531 331.578125 C 179.746094 331.578125 179.21875 331.050781 179.21875 330.402344 Z M 179.21875 324.8125 " fill-opacity="1" fill-rule="evenodd"/><path fill="#ed4e1f" d="M 202.753906 169.472656 C 202.753906 177.273438 196.433594 183.59375 188.632812 183.59375 C 180.835938 183.59375 174.511719 177.273438 174.511719 169.472656 C 174.511719 161.675781 180.835938 155.351562 188.632812 155.351562 C 196.433594 155.351562 202.753906 161.675781 202.753906 169.472656 Z M 202.753906 169.472656 " fill-opacity="1" fill-rule="nonzero"/><path fill="#ed4e1f" d="M 188.632812 190.65625 C 172.96875 190.65625 159.855469 199.441406 156.511719 211.214844 C 164.28125 220.242188 175.789062 225.960938 188.632812 225.960938 C 201.480469 225.960938 212.988281 220.242188 220.757812 211.214844 C 217.414062 199.441406 204.300781 190.65625 188.632812 190.65625 Z M 188.632812 190.65625 " fill-opacity="1" fill-rule="nonzero"/><path fill="#000000" d="M 134.855469 268.324219 L 134.988281 264.277344 L 131.796875 266.449219 L 130.96875 264.90625 L 134.339844 263.03125 L 130.96875 261.152344 L 131.796875 259.609375 L 134.988281 261.777344 L 134.855469 257.734375 L 136.503906 257.734375 L 136.363281 261.777344 L 139.5625 259.609375 L 140.382812 261.152344 L 137.019531 263.03125 L 140.382812 264.90625 L 139.5625 266.449219 L 136.363281 264.277344 L 136.503906 268.324219 Z M 134.855469 268.324219 " fill-opacity="1" fill-rule="nonzero"/><path fill="#000000" d="M 134.855469 301.277344 L 134.988281 297.230469 L 131.796875 299.398438 L 130.96875 297.855469 L 134.339844 295.980469 L 130.96875 294.105469 L 131.796875 292.558594 L 134.988281 294.730469 L 134.855469 290.683594 L 136.503906 290.683594 L 136.363281 294.730469 L 139.5625 292.558594 L 140.382812 294.105469 L 137.019531 295.980469 L 140.382812 297.855469 L 139.5625 299.398438 L 136.363281 297.230469 L 136.503906 301.277344 Z M 134.855469 301.277344 " fill-opacity="1" fill-rule="nonzero"/><path fill="#000000" d="M 148.976562 268.324219 L 149.113281 264.277344 L 145.917969 266.449219 L 145.089844 264.90625 L 148.460938 263.03125 L 145.089844 261.152344 L 145.917969 259.609375 L 149.113281 261.777344 L 148.976562 257.734375 L 150.625 257.734375 L 150.484375 261.777344 L 153.683594 259.609375 L 154.507812 261.152344 L 151.140625 263.03125 L 154.507812 264.90625 L 153.683594 266.449219 L 150.484375 264.277344 L 150.625 268.324219 Z M 148.976562 268.324219 " fill-opacity="1" fill-rule="nonzero"/><path fill="#000000" d="M 148.976562 301.277344 L 149.113281 297.230469 L 145.917969 299.398438 L 145.089844 297.855469 L 148.460938 295.980469 L 145.089844 294.105469 L 145.917969 292.558594 L 149.113281 294.730469 L 148.976562 290.683594 L 150.625 290.683594 L 150.484375 294.730469 L 153.683594 292.558594 L 154.507812 294.105469 L 151.140625 295.980469 L 154.507812 297.855469 L 153.683594 299.398438 L 150.484375 297.230469 L 150.625 301.277344 Z M 148.976562 301.277344 " fill-opacity="1" fill-rule="nonzero"/><path fill="#000000" d="M 163.097656 268.324219 L 163.234375 264.277344 L 160.039062 266.449219 L 159.214844 264.90625 L 162.582031 263.03125 L 159.214844 261.152344 L 160.039062 259.609375 L 163.234375 261.777344 L 163.097656 257.734375 L 164.746094 257.734375 L 164.609375 261.777344 L 167.804688 259.609375 L 168.628906 261.152344 L 165.261719 263.03125 L 168.628906 264.90625 L 167.804688 266.449219 L 164.609375 264.277344 L 164.746094 268.324219 Z M 163.097656 268.324219 " fill-opacity="1" fill-rule="nonzero"/><path fill="#000000" d="M 163.097656 301.277344 L 163.234375 297.230469 L 160.039062 299.398438 L 159.214844 297.855469 L 162.582031 295.980469 L 159.214844 294.105469 L 160.039062 292.558594 L 163.234375 294.730469 L 163.097656 290.683594 L 164.746094 290.683594 L 164.609375 294.730469 L 167.804688 292.558594 L 168.628906 294.105469 L 165.261719 295.980469 L 168.628906 297.855469 L 167.804688 299.398438 L 164.609375 297.230469 L 164.746094 301.277344 Z M 163.097656 301.277344 " fill-opacity="1" fill-rule="nonzero"/><path fill="#000000" d="M 177.21875 268.324219 L 177.355469 264.277344 L 174.160156 266.449219 L 173.335938 264.90625 L 176.703125 263.03125 L 173.335938 261.152344 L 174.160156 259.609375 L 177.355469 261.777344 L 177.21875 257.734375 L 178.867188 257.734375 L 178.730469 261.777344 L 181.925781 259.609375 L 182.75 261.152344 L 179.382812 263.03125 L 182.75 264.90625 L 181.925781 266.449219 L 178.730469 264.277344 L 178.867188 268.324219 Z M 177.21875 268.324219 " fill-opacity="1" fill-rule="nonzero"/><path fill="#000000" d="M 191.339844 268.324219 L 191.476562 264.277344 L 188.28125 266.449219 L 187.457031 264.90625 L 190.824219 263.03125 L 187.457031 261.152344 L 188.28125 259.609375 L 191.476562 261.777344 L 191.339844 257.734375 L 192.988281 257.734375 L 192.851562 261.777344 L 196.046875 259.609375 L 196.871094 261.152344 L 193.503906 263.03125 L 196.871094 264.90625 L 196.046875 266.449219 L 192.851562 264.277344 L 192.988281 268.324219 Z M 191.339844 268.324219 " fill-opacity="1" fill-rule="nonzero"/><path fill="#000000" d="M 177.21875 301.277344 L 177.355469 297.230469 L 174.160156 299.398438 L 173.335938 297.855469 L 176.703125 295.980469 L 173.335938 294.105469 L 174.160156 292.558594 L 177.355469 294.730469 L 177.21875 290.683594 L 178.867188 290.683594 L 178.730469 294.730469 L 181.925781 292.558594 L 182.75 294.105469 L 179.382812 295.980469 L 182.75 297.855469 L 181.925781 299.398438 L 178.730469 297.230469 L 178.867188 301.277344 Z M 177.21875 301.277344 " fill-opacity="1" fill-rule="nonzero"/><path fill="#ffffff" d="M 308.667969 145.347656 C 308.667969 139.824219 313.148438 135.347656 318.671875 135.347656 L 462.242188 135.347656 C 467.765625 135.347656 472.242188 139.824219 472.242188 145.347656 C 472.242188 150.875 467.765625 155.351562 462.242188 155.351562 L 318.671875 155.351562 C 313.148438 155.351562 308.667969 150.875 308.667969 145.347656 Z M 308.667969 145.347656 " fill-opacity="1" fill-rule="nonzero"/><path fill="#000000" d="M 320.210938 140.640625 C 318.089844 140.640625 316.316406 142.457031 316.316406 144.761719 C 316.316406 147.0625 318.089844 148.878906 320.210938 148.878906 C 321.363281 148.878906 322.40625 148.351562 323.125 147.496094 C 323.734375 146.769531 324.105469 145.8125 324.105469 144.761719 C 324.105469 142.457031 322.335938 140.640625 320.210938 140.640625 Z M 315.140625 144.761719 C 315.140625 141.863281 317.382812 139.464844 320.210938 139.464844 C 323.039062 139.464844 325.28125 141.863281 325.28125 144.761719 C 325.28125 145.898438 324.9375 146.957031 324.351562 147.820312 L 327.914062 151.40625 L 327.078125 152.234375 L 323.582031 148.71875 C 322.691406 149.546875 321.511719 150.054688 320.210938 150.054688 C 317.382812 150.054688 315.140625 147.65625 315.140625 144.761719 Z M 315.140625 144.761719 " fill-opacity="1" fill-rule="evenodd"/><path fill="#ed4e1f" d="M 308.667969 187.125 C 308.667969 185.175781 310.25 183.59375 312.199219 183.59375 L 468.714844 183.59375 C 470.664062 183.59375 472.242188 185.175781 472.242188 187.125 L 472.242188 235.375 C 472.242188 237.324219 470.664062 238.90625 468.714844 238.90625 L 312.199219 238.90625 C 310.25 238.90625 308.667969 237.324219 308.667969 235.375 Z M 308.667969 187.125 " fill-opacity="1" fill-rule="nonzero"/><path fill="#ffffff" d="M 308.667969 256.558594 C 308.667969 254.605469 310.25 253.027344 312.199219 253.027344 L 374.570312 253.027344 C 376.519531 253.027344 378.097656 254.605469 378.097656 256.558594 L 378.097656 347.171875 C 378.097656 349.121094 376.519531 350.703125 374.570312 350.703125 L 312.199219 350.703125 C 310.25 350.703125 308.667969 349.121094 308.667969 347.171875 Z M 308.667969 256.558594 " fill-opacity="1" fill-rule="nonzero"/><path fill="#ffffff" d="M 402.8125 256.558594 C 402.8125 254.605469 404.394531 253.027344 406.34375 253.027344 L 468.714844 253.027344 C 470.664062 253.027344 472.242188 254.605469 472.242188 256.558594 L 472.242188 347.171875 C 472.242188 349.121094 470.664062 350.703125 468.714844 350.703125 L 406.34375 350.703125 C 404.394531 350.703125 402.8125 349.121094 402.8125 347.171875 Z M 402.8125 256.558594 " fill-opacity="1" fill-rule="nonzero"/><path fill="#ed4e1f" d="M 308.667969 256.558594 C 308.667969 254.605469 310.25 253.027344 312.199219 253.027344 L 374.570312 253.027344 C 376.519531 253.027344 378.097656 254.605469 378.097656 256.558594 L 378.097656 315.398438 L 308.667969 315.398438 Z M 308.667969 256.558594 " fill-opacity="1" fill-rule="nonzero"/><path fill="#ed4e1f" d="M 402.8125 256.558594 C 402.8125 254.605469 404.394531 253.027344 406.34375 253.027344 L 468.714844 253.027344 C 470.664062 253.027344 472.242188 254.605469 472.242188 256.558594 L 472.242188 315.398438 L 402.8125 315.398438 Z M 402.8125 256.558594 " fill-opacity="1" fill-rule="nonzero"/><path fill="#000000" d="M 337.5 138.875 L 338.675781 138.875 L 338.675781 151.820312 L 337.5 151.820312 Z M 337.5 138.875 " fill-opacity="1" fill-rule="evenodd"/><path fill="#ffffff" d="M 251.097656 570.339844 C 247.972656 566.96875 228.644531 569.160156 221.5 567.769531 L 220.238281 543.675781 C 220.828125 543.644531 243.464844 548.351562 246.558594 539.941406 C 254.917969 546.574219 252.347656 564.1875 251.097656 570.339844 Z M 251.097656 570.339844 " fill-opacity="1" fill-rule="nonzero"/><path fill="#eca766" d="M 236.527344 546.0625 C 238.269531 550.386719 240.464844 548.765625 244.160156 552.570312 C 251.167969 559.789062 237.933594 564.042969 242.101562 568.949219 C 244.699219 572.007812 258.394531 571.527344 265.242188 570.429688 C 267.085938 558.792969 268.921875 536.441406 268.960938 521.234375 C 268.972656 516.664062 269.195312 511.261719 265.695312 508.335938 C 260.484375 503.980469 252.523438 517.261719 248.539062 526.109375 C 247.433594 527.609375 246.304688 529.054688 245.246094 530.386719 L 244.941406 530.765625 C 244.230469 531.660156 243.511719 532.527344 242.800781 533.371094 C 241.722656 534.660156 240.671875 535.890625 239.738281 537.078125 C 237.125 540.398438 235.429688 543.34375 236.527344 546.0625 Z M 236.527344 546.0625 " fill-opacity="1" fill-rule="nonzero"/><path fill="#000000" d="M 237.285156 542.019531 C 236.710938 543.421875 236.597656 544.671875 237.070312 545.84375 C 237.484375 546.871094 237.910156 547.507812 238.351562 547.957031 C 238.792969 548.402344 239.277344 548.6875 239.871094 548.984375 C 240.03125 549.0625 240.195312 549.140625 240.367188 549.222656 C 241.496094 549.761719 242.902344 550.433594 244.582031 552.160156 C 246.425781 554.0625 247.007812 555.851562 246.792969 557.558594 C 246.578125 559.214844 245.625 560.683594 244.667969 561.976562 C 244.433594 562.292969 244.207031 562.585938 243.992188 562.867188 C 243.738281 563.199219 243.492188 563.519531 243.242188 563.859375 C 242.800781 564.464844 242.433594 565.03125 242.183594 565.578125 C 241.9375 566.117188 241.828125 566.613281 241.863281 567.082031 C 241.902344 567.542969 242.09375 568.03125 242.546875 568.566406 L 241.652344 569.328125 C 241.0625 568.636719 240.753906 567.921875 240.691406 567.179688 C 240.628906 566.449219 240.8125 565.75 241.113281 565.089844 C 241.410156 564.433594 241.835938 563.792969 242.292969 563.167969 C 242.53125 562.835938 242.804688 562.480469 243.074219 562.125 C 243.300781 561.835938 243.519531 561.546875 243.722656 561.273438 C 244.675781 559.988281 245.453125 558.734375 245.625 557.410156 C 245.785156 556.136719 245.394531 554.6875 243.734375 552.980469 C 242.210938 551.410156 240.980469 550.820312 239.863281 550.289062 C 239.6875 550.203125 239.515625 550.121094 239.347656 550.039062 C 238.710938 549.722656 238.089844 549.367188 237.515625 548.78125 C 236.9375 548.199219 236.433594 547.417969 235.980469 546.28125 C 235.355469 544.738281 235.546875 543.15625 236.199219 541.570312 C 236.84375 540.003906 237.964844 538.382812 239.277344 536.714844 C 240.066406 535.707031 240.945312 534.664062 241.84375 533.59375 C 242.011719 533.394531 242.179688 533.195312 242.351562 532.992188 C 243.058594 532.148438 243.773438 531.285156 244.480469 530.398438 L 244.785156 530.019531 M 245.160156 531.433594 C 244.59375 532.140625 244.023438 532.828125 243.460938 533.5 C 243.484375 533.582031 243.511719 533.667969 243.535156 533.761719 C 243.566406 533.875 243.597656 534 243.636719 534.132812 L 243.648438 534.179688 C 243.6875 534.332031 243.730469 534.496094 243.777344 534.667969 C 243.964844 535.363281 244.207031 536.207031 244.523438 537.058594 C 244.839844 537.910156 245.21875 538.75 245.675781 539.433594 C 246.132812 540.128906 246.636719 540.613281 247.171875 540.84375 L 246.710938 541.925781 C 245.875 541.570312 245.214844 540.871094 244.691406 540.085938 C 244.167969 539.292969 243.75 538.363281 243.417969 537.46875 C 243.085938 536.566406 242.832031 535.683594 242.640625 534.976562 C 242.605469 534.84375 242.570312 534.714844 242.539062 534.597656 C 241.789062 535.488281 241.070312 536.347656 240.40625 537.179688 C 240.421875 537.222656 240.4375 537.261719 240.453125 537.308594 C 240.695312 537.976562 241.128906 539.171875 241.730469 540.445312 C 242.113281 541.265625 242.558594 542.085938 243.039062 542.777344 C 243.527344 543.480469 244.023438 543.996094 244.496094 544.265625 L 243.917969 545.289062 C 243.214844 544.894531 242.597656 544.207031 242.074219 543.449219 C 241.539062 542.683594 241.066406 541.796875 240.664062 540.945312 C 240.199219 539.960938 239.816406 538.984375 239.554688 538.28125 C 238.558594 539.613281 237.765625 540.851562 237.285156 542.019531 M 245.96875 530.421875 C 246.167969 530.78125 246.363281 531.222656 246.554688 531.679688 C 246.621094 531.832031 246.683594 531.984375 246.753906 532.144531 C 246.984375 532.695312 247.230469 533.289062 247.515625 533.882812 C 247.878906 534.648438 248.285156 535.382812 248.753906 535.992188 C 249.226562 536.601562 249.734375 537.050781 250.296875 537.292969 L 249.835938 538.375 C 249.023438 538.027344 248.363281 537.410156 247.820312 536.710938 C 247.28125 536.003906 246.832031 535.1875 246.453125 534.390625 C 246.15625 533.765625 245.894531 533.140625 245.660156 532.585938 C 245.59375 532.429688 245.535156 532.28125 245.472656 532.140625 C 245.359375 531.871094 245.253906 531.636719 245.160156 531.433594 M 245.96875 530.421875 C 246.710938 529.484375 247.484375 528.492188 248.261719 527.464844 C 248.550781 528.554688 248.96875 529.847656 249.496094 531.054688 C 249.867188 531.910156 250.304688 532.738281 250.800781 533.425781 C 251.292969 534.101562 251.878906 534.6875 252.570312 534.980469 L 253.03125 533.898438 C 252.621094 533.722656 252.1875 533.332031 251.753906 532.730469 C 251.324219 532.140625 250.925781 531.394531 250.574219 530.582031 C 249.902344 529.046875 249.410156 527.339844 249.15625 526.175781 C 251.136719 521.800781 254.0625 516.414062 257.113281 512.640625 C 258.667969 510.722656 260.210938 509.269531 261.640625 508.558594 C 262.347656 508.203125 263 508.042969 263.597656 508.074219 C 264.183594 508.101562 264.757812 508.316406 265.316406 508.789062 L 266.070312 507.882812 C 265.332031 507.261719 264.515625 506.941406 263.65625 506.898438 C 262.804688 506.855469 261.949219 507.085938 261.113281 507.503906 C 259.457031 508.332031 257.785156 509.9375 256.199219 511.898438 C 253.027344 515.820312 250.027344 521.375 248.027344 525.8125 M 260.136719 540.464844 C 259.390625 550.71875 258.167969 560.945312 257.191406 567.722656 L 256.027344 567.554688 C 257 560.800781 258.21875 550.601562 258.964844 540.378906 C 259.710938 530.140625 259.980469 519.925781 259.074219 513.109375 L 260.238281 512.953125 C 261.164062 519.898438 260.886719 530.21875 260.136719 540.464844 Z M 260.136719 540.464844 " fill-opacity="1" fill-rule="evenodd"/><g clip-path="url(#59150e065a)"><path fill="#ffffff" d="M 249.996094 589.988281 C 247.710938 586 228.386719 583.789062 221.738281 580.824219 L 225.925781 557.066406 C 226.507812 557.167969 247.503906 566.84375 252.414062 559.34375 C 259.066406 567.6875 252.597656 584.273438 249.996094 589.988281 Z M 249.996094 589.988281 " fill-opacity="1" fill-rule="nonzero"/></g><g clip-path="url(#f433fa7cd5)"><path fill="#eca766" d="M 241.261719 563.054688 C 241.984375 567.660156 244.492188 566.574219 247.234375 571.113281 C 252.4375 579.722656 238.585938 580.890625 241.542969 586.605469 C 243.386719 590.175781 256.839844 592.785156 263.757812 593.257812 C 268.175781 582.335938 274.992188 560.96875 278.449219 546.15625 C 279.488281 541.707031 280.917969 536.496094 278.167969 532.855469 C 274.070312 527.4375 263.328125 538.589844 257.453125 546.316406 C 256.039062 547.527344 254.613281 548.679688 253.28125 549.742188 L 252.902344 550.042969 C 252.007812 550.753906 251.109375 551.4375 250.230469 552.101562 C 248.886719 553.113281 247.589844 554.078125 246.414062 555.023438 C 243.121094 557.671875 240.804688 560.160156 241.261719 563.054688 Z M 241.261719 563.054688 " fill-opacity="1" fill-rule="nonzero"/></g><path fill="#000000" d="M 242.910156 559.285156 C 242.035156 560.523438 241.644531 561.714844 241.839844 562.960938 C 242.011719 564.058594 242.285156 564.773438 242.613281 565.308594 C 242.945312 565.84375 243.351562 566.234375 243.863281 566.652344 C 244 566.765625 244.144531 566.878906 244.292969 567 C 245.273438 567.777344 246.492188 568.746094 247.738281 570.808594 C 249.109375 573.074219 249.273438 574.949219 248.675781 576.566406 C 248.097656 578.128906 246.839844 579.347656 245.613281 580.390625 C 245.3125 580.648438 245.03125 580.882812 244.753906 581.109375 C 244.433594 581.375 244.121094 581.628906 243.800781 581.90625 C 243.234375 582.398438 242.75 582.867188 242.386719 583.339844 C 242.023438 583.816406 241.804688 584.269531 241.734375 584.734375 C 241.667969 585.195312 241.746094 585.714844 242.066406 586.335938 L 241.019531 586.875 C 240.605469 586.070312 240.464844 585.304688 240.570312 584.570312 C 240.675781 583.84375 241.011719 583.203125 241.449219 582.628906 C 241.886719 582.054688 242.445312 581.523438 243.03125 581.015625 C 243.339844 580.75 243.6875 580.464844 244.03125 580.179688 C 244.3125 579.945312 244.59375 579.714844 244.851562 579.496094 C 246.070312 578.457031 247.109375 577.410156 247.574219 576.15625 C 248.015625 574.953125 247.960938 573.453125 246.730469 571.417969 C 245.597656 569.542969 244.53125 568.691406 243.5625 567.921875 C 243.410156 567.800781 243.261719 567.683594 243.117188 567.5625 C 242.566406 567.113281 242.042969 566.625 241.613281 565.925781 C 241.183594 565.226562 240.867188 564.351562 240.679688 563.144531 C 240.421875 561.5 240.960938 560 241.949219 558.605469 C 242.933594 557.222656 244.390625 555.894531 246.042969 554.5625 C 247.042969 553.761719 248.128906 552.945312 249.246094 552.101562 C 249.457031 551.945312 249.667969 551.789062 249.875 551.628906 C 250.757812 550.964844 251.648438 550.289062 252.535156 549.582031 L 252.917969 549.28125 M 252.964844 550.742188 C 252.253906 551.304688 251.542969 551.84375 250.84375 552.371094 C 250.851562 552.457031 250.855469 552.550781 250.859375 552.644531 C 250.863281 552.761719 250.867188 552.894531 250.871094 553.03125 L 250.871094 553.078125 C 250.878906 553.234375 250.882812 553.40625 250.890625 553.582031 C 250.914062 554.304688 250.964844 555.179688 251.078125 556.078125 C 251.195312 556.980469 251.378906 557.882812 251.664062 558.65625 C 251.957031 559.433594 252.335938 560.019531 252.808594 560.363281 L 252.117188 561.316406 C 251.378906 560.78125 250.894531 559.949219 250.5625 559.066406 C 250.230469 558.179688 250.035156 557.175781 249.914062 556.230469 C 249.789062 555.28125 249.742188 554.359375 249.714844 553.628906 C 249.707031 553.492188 249.703125 553.359375 249.699219 553.234375 C 248.769531 553.9375 247.875 554.609375 247.039062 555.273438 C 247.046875 555.316406 247.050781 555.359375 247.054688 555.40625 C 247.144531 556.113281 247.296875 557.375 247.59375 558.75 C 247.785156 559.636719 248.03125 560.535156 248.347656 561.320312 C 248.664062 562.113281 249.03125 562.730469 249.433594 563.097656 L 248.640625 563.964844 C 248.042969 563.421875 247.597656 562.613281 247.253906 561.757812 C 246.90625 560.890625 246.644531 559.917969 246.445312 559 C 246.214844 557.9375 246.058594 556.898438 245.964844 556.152344 C 244.695312 557.226562 243.644531 558.253906 242.910156 559.285156 M 253.976562 549.9375 C 254.09375 550.332031 254.183594 550.808594 254.269531 551.296875 C 254.296875 551.457031 254.328125 551.625 254.355469 551.792969 C 254.457031 552.382812 254.566406 553.015625 254.707031 553.660156 C 254.890625 554.484375 255.121094 555.292969 255.441406 555.992188 C 255.761719 556.691406 256.160156 557.246094 256.652344 557.605469 L 255.960938 558.558594 C 255.246094 558.039062 254.742188 557.289062 254.371094 556.480469 C 254 555.675781 253.75 554.773438 253.558594 553.914062 C 253.410156 553.238281 253.296875 552.570312 253.191406 551.976562 C 253.164062 551.8125 253.136719 551.652344 253.109375 551.5 C 253.058594 551.214844 253.011719 550.960938 252.964844 550.742188 M 253.976562 549.9375 C 254.914062 549.191406 255.894531 548.398438 256.878906 547.574219 C 256.917969 548.699219 257.03125 550.054688 257.273438 551.347656 C 257.445312 552.265625 257.683594 553.171875 258.011719 553.949219 C 258.339844 554.71875 258.78125 555.421875 259.386719 555.867188 L 260.078125 554.914062 C 259.722656 554.652344 259.386719 554.175781 259.097656 553.492188 C 258.8125 552.816406 258.59375 552 258.429688 551.132812 C 258.121094 549.480469 258.027344 547.710938 258.039062 546.515625 C 260.953125 542.703125 265.015625 538.113281 268.839844 535.121094 C 270.785156 533.597656 272.617188 532.535156 274.167969 532.160156 C 274.9375 531.972656 275.609375 531.964844 276.183594 532.128906 C 276.75 532.289062 277.257812 532.628906 277.699219 533.210938 L 278.640625 532.5 C 278.054688 531.730469 277.335938 531.234375 276.503906 530.996094 C 275.683594 530.761719 274.796875 530.796875 273.890625 531.015625 C 272.09375 531.449219 270.101562 532.640625 268.113281 534.195312 C 264.144531 537.300781 259.972656 542.035156 257.023438 545.910156 M 265.527344 562.910156 C 262.492188 572.734375 259 582.425781 256.523438 588.808594 L 255.425781 588.382812 C 257.898438 582.019531 261.378906 572.359375 264.40625 562.5625 C 267.433594 552.757812 269.996094 542.863281 270.644531 536.015625 L 271.816406 536.128906 C 271.152344 543.105469 268.5625 553.097656 265.527344 562.910156 Z M 265.527344 562.910156 " fill-opacity="1" fill-rule="evenodd"/><path fill="#ffffff" d="M 103.738281 477.796875 C 102.5625 473.675781 101.855469 459.203125 101.386719 457.789062 C 95.894531 459.753906 87.382812 460.613281 85.5 464.851562 C 85.5 471.324219 85.121094 481.820312 88.441406 489.5625 C 90.207031 493.683594 116.292969 508.394531 124.921875 510.160156 L 139.042969 503.097656 C 134.335938 499.332031 114.132812 481.71875 103.738281 477.796875 Z M 103.738281 477.796875 " fill-opacity="1" fill-rule="nonzero"/><path fill="#000000" d="M 230.820312 543.699219 C 215.757812 541.816406 103.140625 540.753906 57.242188 537.8125 C 53.476562 543.933594 50.96875 561.152344 50.183594 569 C 59.597656 569 221.996094 579 225.527344 576.648438 C 233.175781 569 232.585938 554.289062 230.820312 543.699219 Z M 230.820312 543.699219 " fill-opacity="1" fill-rule="nonzero"/><path fill="#000000" d="M 23.703125 584.296875 C -6.890625 582.886719 3.03125 531.144531 11.660156 509.570312 C 21.859375 517.203125 45.4375 532.164062 58.144531 530.9375 C 86.425781 528.101562 115.597656 520.820312 126.675781 521.925781 C 138.253906 523.085938 210.761719 542.808594 234.941406 559.585938 C 235.882812 567.113281 224.546875 582.53125 220.230469 585.472656 C 192.574219 579 144.914062 570.175781 129.617188 559.585938 C 110.316406 567.117188 54.300781 585.710938 23.703125 584.296875 Z M 23.703125 584.296875 " fill-opacity="1" fill-rule="nonzero"/><path fill="#ffffff" d="M 199.085938 542.765625 C 199.199219 542.460938 199.539062 542.304688 199.84375 542.417969 C 212.257812 547.039062 223.703125 551.996094 231.714844 556.808594 C 231.992188 556.976562 232.082031 557.339844 231.914062 557.617188 C 231.75 557.894531 231.386719 557.984375 231.109375 557.816406 C 223.191406 553.0625 211.828125 548.136719 199.433594 543.523438 C 199.128906 543.40625 198.972656 543.070312 199.085938 542.765625 Z M 199.085938 542.765625 " fill-opacity="1" fill-rule="evenodd"/><path fill="#ffffff" d="M 129.695312 558.921875 L 129.953125 559.101562 C 133.746094 561.726562 139.605469 564.265625 146.742188 566.703125 C 153.863281 569.132812 162.210938 571.449219 170.949219 573.632812 C 171.265625 573.710938 171.457031 574.03125 171.375 574.34375 C 171.296875 574.660156 170.976562 574.851562 170.664062 574.773438 C 161.914062 572.585938 153.527344 570.265625 146.359375 567.816406 C 139.359375 565.425781 133.476562 562.902344 129.542969 560.246094 C 122.769531 562.875 111.703125 566.792969 98.859375 570.738281 C 98.550781 570.832031 98.21875 570.660156 98.125 570.347656 C 98.027344 570.039062 98.203125 569.707031 98.515625 569.613281 C 111.519531 565.617188 122.691406 561.65625 129.402344 559.035156 Z M 129.695312 558.921875 " fill-opacity="1" fill-rule="evenodd"/><path fill="#ed4e1f" d="M 84.308594 409.542969 C 80.542969 425.546875 63.128906 414.640625 53.710938 407.1875 C 44.691406 409.933594 23.46875 416.957031 20.171875 423.074219 C 16.878906 429.195312 7.425781 451.121094 3.109375 461.320312 C 6.519531 463.347656 11.835938 466.117188 17.105469 468.097656 C 15.523438 492.730469 -0.273438 522.863281 2.523438 551.933594 C 31.351562 520.160156 36.648438 544.875 92.546875 537.8125 C 97.253906 530.753906 71.640625 490.59375 89.015625 469.558594 C 89.183594 469.359375 89.34375 469.15625 89.496094 468.953125 C 95.640625 467.078125 102.378906 463.4375 105.769531 461.320312 C 101.648438 423.074219 93.410156 414.835938 84.308594 409.542969 Z M 84.308594 409.542969 " fill-opacity="1" fill-rule="nonzero"/><path fill="#000000" d="M 83.800781 409.246094 C 83.964844 408.964844 84.324219 408.871094 84.605469 409.035156 C 89.230469 411.726562 93.660156 415.183594 97.433594 422.8125 C 101.191406 430.40625 104.289062 442.109375 106.351562 461.257812 L 106.390625 461.625 L 106.078125 461.820312 C 102.703125 463.929688 96.011719 467.550781 89.851562 469.460938 C 89.726562 469.621094 89.601562 469.777344 89.472656 469.933594 C 85.238281 475.058594 83.605469 481.367188 83.488281 488.113281 C 83.375 494.867188 84.785156 502.015625 86.601562 508.773438 C 87.695312 512.851562 88.925781 516.730469 90.050781 520.296875 C 90.800781 522.671875 91.507812 524.90625 92.105469 526.964844 C 92.839844 529.511719 93.398438 531.78125 93.621094 533.644531 C 93.835938 535.480469 93.75 537.070312 93.035156 538.140625 C 92.855469 538.410156 92.492188 538.484375 92.222656 538.304688 C 91.949219 538.121094 91.878906 537.757812 92.058594 537.488281 C 92.519531 536.792969 92.664062 535.582031 92.449219 533.785156 C 92.242188 532.019531 91.707031 529.828125 90.972656 527.292969 C 90.398438 525.300781 89.699219 523.085938 88.949219 520.714844 C 87.8125 517.113281 86.558594 513.15625 85.464844 509.078125 C 83.636719 502.285156 82.195312 495.007812 82.3125 488.09375 C 82.429688 481.175781 84.109375 474.578125 88.5625 469.183594 C 88.722656 468.992188 88.878906 468.796875 89.03125 468.597656 C 93.292969 463.015625 94.195312 455.625 93.488281 447.605469 C 92.820312 440.039062 90.734375 432.015625 88.796875 424.566406 C 88.679688 424.117188 88.5625 423.667969 88.449219 423.222656 C 88.367188 422.90625 88.554688 422.585938 88.871094 422.503906 C 89.183594 422.425781 89.503906 422.613281 89.585938 422.929688 C 89.703125 423.382812 89.824219 423.835938 89.941406 424.296875 C 91.875 431.722656 93.980469 439.835938 94.660156 447.5 C 95.320312 454.980469 94.625 462.136719 90.988281 467.847656 C 96.398438 465.960938 102.011719 462.941406 105.144531 461.015625 C 103.085938 442.136719 100.023438 430.699219 96.378906 423.335938 C 92.730469 415.960938 88.492188 412.65625 84.011719 410.050781 C 83.734375 409.886719 83.636719 409.527344 83.800781 409.246094 Z M 83.800781 409.246094 " fill-opacity="1" fill-rule="evenodd"/><path fill="#ffffff" d="M 64.890625 526.046875 C 27.234375 514.867188 5.464844 497.917969 3.109375 488.976562 C 0.863281 480.4375 4.453125 469.152344 6.535156 463.246094 C 12.4375 466.402344 20.796875 470.105469 26.738281 470.527344 C 25.777344 475.21875 24.914062 482.253906 23.703125 484.269531 C 53.125 500.742188 46.0625 504.273438 73.71875 517.21875 C 78.035156 517.808594 87.132812 519.925781 89.015625 523.691406 C 86.859375 527.417969 82.898438 535.8125 74.894531 532.519531 C 72.070312 533.929688 66.265625 528.203125 64.890625 526.046875 Z M 64.890625 526.046875 " fill-opacity="1" fill-rule="nonzero"/><path fill="#eca766" d="M 175.945312 468.386719 L 94.515625 474.058594 C 92.851562 474.171875 91.484375 475.398438 91.214844 477.011719 L 82.1875 531.050781 L 41.445312 533.886719 C 41.375 533.890625 41.335938 533.960938 41.367188 534.023438 C 42.964844 537.132812 45.972656 539.28125 49.441406 539.785156 L 51.949219 540.152344 C 52.054688 540.167969 52.164062 540.171875 52.269531 540.164062 L 157.507812 532.835938 C 161.96875 532.523438 165.910156 529.972656 168.03125 526.148438 C 168.429688 525.675781 168.710938 525.101562 168.816406 524.464844 L 177.839844 470.425781 C 178.03125 469.304688 177.101562 468.304688 175.945312 468.386719 Z M 175.945312 468.386719 " fill-opacity="1" fill-rule="nonzero"/><path fill="#ffffff" d="M 53.480469 407.195312 C 63 404.429688 61.023438 389.535156 61.023438 380.710938 C 62.03125 384.054688 69.265625 400.484375 81.894531 401.8125 C 81.773438 403.847656 83.671875 407.695312 85.359375 410.5625 C 86.351562 412.25 86.6875 414.359375 85.632812 416.003906 C 78.433594 427.195312 61.535156 415.183594 53.480469 407.195312 Z M 53.480469 407.195312 " fill-opacity="1" fill-rule="nonzero"/><path fill="#ffffff" d="M 66.320312 368.867188 C 81.472656 368.535156 87.355469 358.117188 88.527344 352.550781 C 91.824219 353.796875 98.457031 358.046875 98.601562 365.066406 C 98.777344 373.835938 100.277344 400 85.449219 401.78125 C 84.21875 401.925781 83.035156 401.929688 81.894531 401.8125 C 69.261719 400.484375 62.03125 384.054688 61.023438 380.710938 C 53.816406 376.53125 53.808594 368.484375 56.875 365.910156 C 59.328125 363.855469 64.191406 367.023438 66.320312 368.867188 Z M 66.320312 368.867188 " fill-opacity="1" fill-rule="nonzero"/><path fill="#000000" d="M 58.644531 369.164062 C 58.789062 368.875 59.140625 368.753906 59.429688 368.898438 C 60.171875 369.261719 61.253906 369.988281 62.148438 371.003906 C 63.046875 372.019531 63.804688 373.378906 63.769531 374.996094 C 63.761719 375.320312 63.496094 375.578125 63.167969 375.570312 C 62.84375 375.566406 62.585938 375.296875 62.59375 374.96875 C 62.617188 373.75 62.050781 372.667969 61.269531 371.78125 C 60.484375 370.898438 59.53125 370.261719 58.910156 369.953125 C 58.617188 369.808594 58.5 369.457031 58.644531 369.164062 Z M 60.855469 380.148438 C 61.164062 380.054688 61.492188 380.230469 61.585938 380.539062 C 62.074219 382.148438 64.101562 387.03125 67.574219 391.664062 C 71.050781 396.308594 75.886719 400.589844 81.957031 401.226562 C 82.28125 401.261719 82.515625 401.550781 82.480469 401.871094 C 82.449219 402.195312 82.160156 402.429688 81.835938 402.394531 C 75.277344 401.707031 70.179688 397.109375 66.628906 392.371094 C 63.074219 387.621094 60.984375 382.613281 60.460938 380.878906 C 60.367188 380.570312 60.542969 380.242188 60.855469 380.148438 Z M 60.855469 380.148438 " fill-opacity="1" fill-rule="evenodd"/><path fill="#000000" d="M 66.320312 368.867188 C 81.472656 368.535156 87.355469 358.117188 88.527344 352.550781 C 91.824219 353.796875 98.457031 358.046875 98.601562 365.066406 C 98.78125 373.835938 100.277344 400 85.449219 401.78125 C 84.21875 401.925781 83.035156 401.929688 81.894531 401.8125 C 81.777344 403.820312 83.078125 406.6875 83.722656 409.542969 C 90.609375 413.601562 95.5 421.734375 97.84375 426.015625 C 98.910156 427.964844 100.332031 432.417969 101.738281 436.949219 L 108.878906 427.527344 C 113.15625 420.609375 110.039062 413.929688 105.980469 407.835938 C 101.796875 401.554688 106.589844 398.1875 109.277344 391.796875 C 111.96875 385.402344 107.976562 379.613281 105.292969 375.117188 C 102.609375 370.621094 104.003906 365.539062 104.109375 353.476562 C 104.199219 343.828125 89.664062 338.25 82.386719 336.667969 C 74.085938 335.074219 56.140625 335.886719 50.765625 351.886719 C 46.539062 365.007812 51.175781 366.628906 40.75 368.996094 C 27.953125 371.898438 39.472656 383.558594 30.71875 388.945312 C 25.601562 392.441406 16.042969 407.007812 26.648438 417.777344 C 40.75 413.660156 53.125 408.953125 53.125 408.953125 C 62.644531 406.1875 61.296875 388.386719 61.023438 380.710938 C 53.816406 376.53125 53.808594 368.484375 56.875 365.910156 C 59.328125 363.851562 64.191406 367.023438 66.320312 368.867188 Z M 66.320312 368.867188 " fill-opacity="1" fill-rule="nonzero"/><path fill="#000000" d="M 77.503906 369.253906 C 76.378906 370.675781 75.5625 372.734375 75.355469 375.101562 C 75.148438 377.46875 75.597656 379.640625 76.457031 381.230469 C 77.316406 382.832031 78.550781 383.785156 79.910156 383.902344 C 81.273438 384.019531 82.652344 383.296875 83.78125 381.871094 C 84.902344 380.453125 85.71875 378.394531 85.925781 376.027344 C 86.132812 373.660156 85.6875 371.488281 84.828125 369.894531 C 83.964844 368.296875 82.730469 367.34375 81.371094 367.226562 C 80.011719 367.105469 78.628906 367.832031 77.503906 369.253906 Z M 76.582031 368.523438 C 77.863281 366.90625 79.59375 365.886719 81.472656 366.054688 C 83.355469 366.21875 84.882812 367.519531 85.863281 369.335938 C 86.738281 370.960938 87.214844 373.046875 87.148438 375.292969 C 87.53125 375.214844 87.96875 375.15625 88.402344 375.152344 C 88.84375 375.148438 89.339844 375.199219 89.792969 375.375 C 90.074219 373.441406 90.777344 371.726562 91.75 370.460938 C 92.835938 369.039062 94.320312 368.125 95.953125 368.265625 C 97.585938 368.410156 98.886719 369.570312 99.714844 371.15625 C 100.542969 372.75 100.9375 374.851562 100.742188 377.085938 C 100.546875 379.320312 99.792969 381.320312 98.699219 382.746094 C 97.609375 384.167969 96.125 385.082031 94.492188 384.9375 C 92.890625 384.800781 91.605469 383.679688 90.78125 382.136719 C 89.984375 380.65625 89.574219 378.71875 89.671875 376.640625 C 89.394531 376.429688 88.964844 376.324219 88.414062 376.328125 C 87.933594 376.332031 87.445312 376.421875 87.058594 376.523438 C 86.78125 378.925781 85.921875 381.0625 84.703125 382.601562 C 83.421875 384.222656 81.691406 385.238281 79.808594 385.074219 C 77.929688 384.910156 76.402344 383.609375 75.421875 381.789062 C 74.4375 379.96875 73.960938 377.5625 74.183594 375 C 74.40625 372.4375 75.296875 370.148438 76.582031 368.523438 Z M 92.683594 371.175781 C 91.746094 372.398438 91.054688 374.175781 90.878906 376.222656 C 90.871094 376.296875 90.867188 376.371094 90.859375 376.445312 C 90.722656 378.445312 91.109375 380.257812 91.816406 381.582031 C 92.53125 382.910156 93.523438 383.671875 94.597656 383.765625 C 95.6875 383.863281 96.824219 383.261719 97.765625 382.03125 C 98.703125 380.808594 99.390625 379.03125 99.570312 376.984375 C 99.75 374.9375 99.378906 373.066406 98.667969 371.699219 C 97.953125 370.324219 96.941406 369.535156 95.851562 369.4375 C 94.757812 369.34375 93.625 369.945312 92.683594 371.175781 Z M 92.683594 371.175781 " fill-opacity="1" fill-rule="evenodd"/><path fill="#000000" d="M 85.207031 378.308594 C 85.105469 379.476562 84.390625 380.371094 83.613281 380.300781 C 82.835938 380.234375 82.285156 379.230469 82.390625 378.066406 C 82.492188 376.898438 83.207031 376.003906 83.984375 376.074219 C 84.761719 376.140625 85.308594 377.144531 85.207031 378.308594 Z M 85.207031 378.308594 " fill-opacity="1" fill-rule="nonzero"/><path fill="#000000" d="M 97.847656 379.890625 C 97.746094 381.058594 97.035156 381.949219 96.253906 381.878906 C 95.476562 381.8125 94.929688 380.8125 95.03125 379.644531 C 95.132812 378.476562 95.847656 377.585938 96.625 377.652344 C 97.402344 377.722656 97.953125 378.722656 97.847656 379.890625 Z M 97.847656 379.890625 " fill-opacity="1" fill-rule="nonzero"/><path fill="#000000" d="M 75.488281 371.4375 L 66.195312 369.441406 L 66.441406 368.292969 L 75.734375 370.289062 Z M 75.488281 371.4375 " fill-opacity="1" fill-rule="evenodd"/><path fill="#000000" d="M 82.832031 392.433594 C 82.953125 392.128906 83.296875 391.984375 83.597656 392.105469 C 84.886719 392.625 86.585938 392.886719 88.171875 392.121094 C 88.464844 391.980469 88.816406 392.105469 88.960938 392.398438 C 89.101562 392.6875 88.976562 393.039062 88.683594 393.183594 C 86.691406 394.140625 84.621094 393.785156 83.15625 393.195312 C 82.855469 393.074219 82.710938 392.734375 82.832031 392.433594 Z M 82.832031 392.433594 " fill-opacity="1" fill-rule="evenodd"/><path fill="#000000" d="M 39.167969 447.222656 C 39.480469 447.3125 39.660156 447.640625 39.566406 447.953125 C 38.683594 450.996094 37.269531 455.734375 35.902344 460.070312 C 34.539062 464.378906 33.199219 468.359375 32.46875 469.824219 L 32.398438 469.960938 L 32.269531 470.046875 C 30.683594 471.105469 28.457031 471.316406 26.011719 471.050781 C 23.546875 470.785156 20.75 470.027344 17.933594 469.023438 C 12.292969 467.019531 6.460938 463.996094 2.808594 461.828125 C 2.53125 461.660156 2.4375 461.300781 2.605469 461.019531 C 2.769531 460.742188 3.132812 460.648438 3.410156 460.816406 C 7.015625 462.960938 12.777344 465.941406 18.328125 467.914062 C 21.101562 468.902344 23.800781 469.628906 26.136719 469.882812 C 28.414062 470.128906 30.246094 469.910156 31.484375 469.152344 C 32.183594 467.679688 33.449219 463.921875 34.777344 459.71875 C 36.144531 455.394531 37.554688 450.660156 38.4375 447.625 C 38.527344 447.3125 38.855469 447.132812 39.167969 447.222656 Z M 39.167969 447.222656 " fill-opacity="1" fill-rule="evenodd"/><path fill="#ed4e1f" d="M 440.859375 503.6875 C 445.410156 484 451.769531 462.902344 455.59375 451.316406 C 457.917969 467.609375 453.140625 493.476562 448.0625 513.6875 C 459.003906 499.175781 482.304688 469.792969 487.953125 468.382812 C 478.683594 488.191406 456.882812 530.164062 443.824219 539.578125 L 420.875 534.871094 C 413.34375 532.046875 389.101562 488.191406 377.921875 466.617188 C 384.511719 468.96875 405.4375 495.839844 415.074219 508.980469 C 412.535156 489.566406 410.605469 464 409.695312 448.375 C 414.402344 453.554688 423.527344 485.445312 427.5 500.742188 C 429.816406 479.777344 434.601562 447.957031 437.351562 430.722656 C 442.058594 441.078125 441.652344 483.679688 440.859375 503.6875 Z M 440.859375 503.6875 " fill-opacity="1" fill-rule="nonzero"/><path fill="#eca766" d="M 431.445312 507.214844 C 435.996094 487.53125 442.355469 466.433594 446.175781 454.847656 C 448.503906 471.140625 443.726562 497.007812 438.648438 517.21875 C 449.589844 502.707031 472.890625 473.324219 478.539062 471.914062 C 469.269531 491.722656 447.46875 533.695312 434.410156 543.109375 L 411.460938 538.402344 C 403.929688 535.578125 379.6875 491.722656 368.507812 470.148438 C 375.097656 472.5 396.023438 499.371094 405.660156 512.511719 C 403.121094 493.097656 401.191406 467.527344 400.28125 451.90625 C 404.988281 457.085938 414.113281 488.976562 418.085938 504.273438 C 420.402344 483.308594 425.183594 451.488281 427.9375 434.253906 C 432.644531 444.609375 432.238281 487.210938 431.445312 507.214844 Z M 431.445312 507.214844 " fill-opacity="1" fill-rule="nonzero"/><g clip-path="url(#4acfdac4ee)"><path fill="#000000" d="M 400.28125 533.695312 L 459.121094 533.695312 L 448.179688 589.457031 C 447.960938 590.5625 446.996094 591.359375 445.871094 591.359375 L 413.535156 591.359375 C 412.410156 591.359375 411.441406 590.5625 411.222656 589.457031 Z M 400.28125 533.695312 " fill-opacity="1" fill-rule="nonzero"/></g><g clip-path="url(#dff681eb8a)"><g clip-path="url(#edad1f39e2)"><path fill="url(#16e5a986fa)" d="M 509.746094 363.324219 L 554.648438 363.324219 L 554.648438 435.234375 L 509.746094 435.234375 Z M 509.746094 363.324219 " fill-rule="nonzero"/></g></g><g clip-path="url(#9f54f1d66d)"><g clip-path="url(#0c0348d743)"><g clip-path="url(#4e57364ec8)"><g clip-path="url(#8a8a102bdd)"><path fill="url(#1babe2f330)" d="M 26.546875 -39.90625 L 125.65625 25.144531 L 61.152344 123.421875 L -37.957031 58.367188 Z M 26.546875 -39.90625 " fill-rule="nonzero"/></g></g></g></g><g clip-path="url(#5a538f82bc)"><g clip-path="url(#bad5db0ac3)"><g clip-path="url(#18acb60fe0)"><g clip-path="url(#7926c03581)"><path fill="url(#cff41a41dc)" d="M 163.140625 25.980469 L 130.640625 98.191406 L 58.96875 65.9375 L 91.464844 -6.273438 Z M 163.140625 25.980469 " fill-rule="nonzero"/></g></g></g></g><g clip-path="url(#0a188054ac)"><g clip-path="url(#fc1aad3021)"><g clip-path="url(#a73f443a54)"><g clip-path="url(#cb5283af41)"><path fill="url(#6e67df4e38)" d="M 392.328125 14.320312 L 387.941406 84.503906 L 309.320312 79.59375 L 313.707031 9.410156 Z M 392.328125 14.320312 " fill-rule="nonzero"/></g></g></g></g></svg>