<svg xmlns="http://www.w3.org/2000/svg" xmlns:xlink="http://www.w3.org/1999/xlink" width="763" zoomAndPan="magnify" viewBox="0 0 572.25 455.999984" height="608" preserveAspectRatio="xMidYMid meet" version="1.0"><defs><clipPath id="aa83e3b6a3"><path d="M 0 0.296875 L 571.5 0.296875 L 571.5 455.699219 L 0 455.699219 Z M 0 0.296875 " clip-rule="nonzero"/></clipPath><clipPath id="0196db04c0"><path d="M 140.054688 30.628906 L 431.421875 30.628906 L 431.421875 425.359375 L 140.054688 425.359375 Z M 140.054688 30.628906 " clip-rule="nonzero"/></clipPath></defs><g clip-path="url(#aa83e3b6a3)"><path fill="#ffffff" d="M 0 0.296875 L 571.5 0.296875 L 571.5 455.703125 L 0 455.703125 Z M 0 0.296875 " fill-opacity="1" fill-rule="nonzero"/><path fill="#ffffff" d="M 0 0.296875 L 571.5 0.296875 L 571.5 455.703125 L 0 455.703125 Z M 0 0.296875 " fill-opacity="1" fill-rule="nonzero"/></g><g clip-path="url(#0196db04c0)"><path fill="#ed4e1f" d="M 204.425781 296.867188 L 164.238281 386.335938 C 163.46875 388.046875 163.695312 390.039062 164.824219 391.535156 C 165.953125 393.027344 167.808594 393.789062 169.664062 393.515625 L 211.65625 387.355469 C 211.65625 387.355469 234.941406 422.839844 234.941406 422.839844 C 235.96875 424.40625 237.769531 425.289062 239.636719 425.140625 C 241.507812 424.992188 243.144531 423.835938 243.914062 422.125 L 285.710938 329.078125 L 327.507812 422.125 C 328.273438 423.835938 329.914062 424.992188 331.78125 425.140625 C 333.648438 425.289062 335.449219 424.40625 336.476562 422.839844 L 359.765625 387.355469 C 359.765625 387.355469 401.757812 393.515625 401.757812 393.515625 C 403.609375 393.789062 405.464844 393.027344 406.59375 391.535156 C 407.726562 390.039062 407.949219 388.046875 407.183594 386.335938 L 366.992188 296.867188 C 405.75 270.707031 431.261719 226.378906 431.261719 176.136719 C 431.261719 95.808594 366.042969 30.585938 285.710938 30.585938 C 205.378906 30.585938 140.160156 95.808594 140.160156 176.136719 C 140.160156 226.378906 165.667969 270.707031 204.425781 296.867188 Z M 358.203125 302.355469 C 338.984375 313.425781 317 320.234375 293.550781 321.480469 L 333.03125 409.382812 L 352.980469 378.988281 C 354.074219 377.320312 356.039062 376.4375 358.015625 376.726562 C 358.015625 376.726562 393.984375 382.003906 393.984375 382.003906 Z M 213.214844 302.355469 L 177.4375 382.003906 L 213.40625 376.726562 C 215.378906 376.4375 217.34375 377.320312 218.441406 378.988281 C 218.441406 378.988281 238.386719 409.382812 238.386719 409.382812 L 277.871094 321.480469 C 254.417969 320.234375 232.433594 313.425781 213.214844 302.355469 Z M 285.710938 40.851562 C 360.375 40.851562 420.996094 101.472656 420.996094 176.136719 C 420.996094 250.804688 360.375 311.425781 285.710938 311.425781 C 211.042969 311.425781 150.421875 250.804688 150.421875 176.136719 C 150.421875 101.472656 211.042969 40.851562 285.710938 40.851562 Z M 285.710938 55.078125 C 218.894531 55.078125 164.648438 109.324219 164.648438 176.136719 C 164.648438 242.953125 218.894531 297.199219 285.710938 297.199219 C 352.523438 297.199219 406.769531 242.953125 406.769531 176.136719 C 406.769531 109.324219 352.523438 55.078125 285.710938 55.078125 Z M 285.710938 65.339844 C 346.859375 65.339844 396.507812 114.988281 396.507812 176.136719 C 396.507812 237.289062 346.859375 286.9375 285.710938 286.9375 C 224.558594 286.9375 174.914062 237.289062 174.914062 176.136719 C 174.914062 114.988281 224.558594 65.339844 285.710938 65.339844 Z M 290.375 91.839844 C 289.542969 90.011719 287.71875 88.839844 285.710938 88.839844 C 283.699219 88.839844 281.875 90.011719 281.042969 91.839844 L 259.230469 139.554688 C 259.230469 139.554688 207.109375 145.554688 207.109375 145.554688 C 205.113281 145.785156 203.4375 147.15625 202.816406 149.066406 C 202.195312 150.976562 202.746094 153.074219 204.226562 154.433594 L 242.863281 189.921875 C 242.863281 189.921875 232.464844 241.34375 232.464844 241.34375 C 232.066406 243.3125 232.855469 245.332031 234.480469 246.515625 C 236.105469 247.695312 238.265625 247.820312 240.015625 246.832031 L 285.710938 221.050781 C 285.710938 221.050781 331.402344 246.832031 331.402344 246.832031 C 333.152344 247.820312 335.316406 247.695312 336.941406 246.515625 C 338.566406 245.332031 339.351562 243.3125 338.953125 241.34375 L 328.554688 189.921875 C 328.554688 189.921875 367.191406 154.433594 367.191406 154.433594 C 368.671875 153.074219 369.222656 150.976562 368.601562 149.066406 C 367.980469 147.15625 366.304688 145.785156 364.308594 145.554688 L 312.1875 139.554688 C 312.1875 139.554688 290.375 91.839844 290.375 91.839844 Z M 285.710938 106.320312 L 304.058594 146.457031 C 304.804688 148.089844 306.351562 149.214844 308.136719 149.421875 L 351.980469 154.46875 C 351.980469 154.46875 319.476562 184.320312 319.476562 184.320312 C 318.152344 185.535156 317.5625 187.355469 317.917969 189.117188 L 326.667969 232.375 C 326.667969 232.375 288.230469 210.6875 288.230469 210.6875 C 286.664062 209.804688 284.753906 209.804688 283.1875 210.6875 L 244.75 232.375 C 244.75 232.375 253.5 189.117188 253.5 189.117188 C 253.855469 187.355469 253.265625 185.535156 251.941406 184.320312 L 219.4375 154.46875 C 219.4375 154.46875 263.28125 149.421875 263.28125 149.421875 C 265.066406 149.214844 266.613281 148.089844 267.359375 146.457031 Z M 285.710938 106.320312 " fill-opacity="1" fill-rule="evenodd"/></g></svg>